<svg xmlns="http://www.w3.org/2000/svg" style="display:none" aria-hidden="true" focusable="false">
  <defs>
    <symbol id="vial" viewBox="0 0 80 160">
      <rect x="26" y="4" width="28" height="10" rx="1.5" fill="#5b3a8a"/>
      <rect x="26" y="4" width="28" height="3" fill="#432a66"/>
      <rect x="22" y="14" width="36" height="8" fill="#c9c6bf" stroke="#9b9aa0" stroke-width="0.5"/>
      <rect x="22" y="14" width="36" height="2" fill="#7a7770"/>
      <rect x="30" y="22" width="20" height="6" fill="#fafaf8" stroke="#d6d3cc" stroke-width="0.5"/>
      <path d="M22 28 Q22 30 22 32 L22 148 Q22 154 28 154 L52 154 Q58 154 58 148 L58 32 Q58 30 58 28 Z" fill="url(#vial-glass)" stroke="#bdbab2" stroke-width="0.8"/>
      <path d="M24 110 Q40 102 56 110 L56 148 Q56 152 52 152 L28 152 Q24 152 24 148 Z" fill="#fbfaf6" opacity="0.95"/>
      <rect x="26" y="34" width="3" height="100" fill="#fff" opacity="0.6" rx="1.5"/>
      <rect x="26" y="58" width="28" height="44" fill="#fff" stroke="#e8e6e0" stroke-width="0.4"/>
      <rect x="29" y="62" width="22" height="3" fill="#5b3a8a"/>
      <line x1="29" y1="70" x2="48" y2="70" stroke="#9b9aa0" stroke-width="0.5"/>
      <line x1="29" y1="74" x2="46" y2="74" stroke="#9b9aa0" stroke-width="0.5"/>
      <line x1="29" y1="78" x2="44" y2="78" stroke="#9b9aa0" stroke-width="0.5"/>
      <rect x="29" y="86" width="14" height="2" fill="#0b0b0c"/>
      <rect x="29" y="90" width="10" height="2" fill="#0b0b0c"/>
      <text x="29" y="100" font-family="monospace" font-size="3" fill="#6b6b72">5MG · LYO</text>
    </symbol>
    <linearGradient id="vial-glass" x1="0" y1="0" x2="1" y2="0">
      <stop offset="0" stop-color="#f4f3ef"/>
      <stop offset="0.5" stop-color="#fafaf8"/>
      <stop offset="1" stop-color="#e8e6e0"/>
    </linearGradient>

    <symbol id="dropper" viewBox="0 0 80 160">
      <rect x="22" y="2" width="36" height="18" rx="2" fill="#1a1a1c"/>
      <rect x="22" y="16" width="36" height="4" fill="#0b0b0c"/>
      <rect x="34" y="20" width="12" height="6" fill="#7a7770"/>
      <path d="M22 26 L58 26 L56 152 Q56 156 52 156 L28 156 Q24 156 24 152 Z" fill="url(#vial-glass)" stroke="#bdbab2" stroke-width="0.8"/>
      <path d="M28 80 Q40 76 52 80 L52 152 Q52 154 50 154 L30 154 Q28 154 28 152 Z" fill="#3d2860" opacity="0.85"/>
      <rect x="26" y="32" width="3" height="60" fill="#fff" opacity="0.5" rx="1.5"/>
      <rect x="28" y="56" width="24" height="34" fill="#fff" stroke="#e8e6e0" stroke-width="0.4"/>
      <rect x="31" y="60" width="18" height="3" fill="#5b3a8a"/>
      <line x1="31" y1="68" x2="46" y2="68" stroke="#9b9aa0" stroke-width="0.5"/>
      <line x1="31" y1="72" x2="44" y2="72" stroke="#9b9aa0" stroke-width="0.5"/>
      <rect x="31" y="80" width="10" height="2" fill="#0b0b0c"/>
    </symbol>

    <symbol id="capsule-bottle" viewBox="0 0 80 160">
      <rect x="28" y="4" width="24" height="14" rx="1" fill="#0b0b0c"/>
      <rect x="22" y="18" width="36" height="8" fill="#bdbab2"/>
      <path d="M22 26 L58 26 L58 150 Q58 154 54 154 L26 154 Q22 154 22 150 Z" fill="url(#vial-glass)" stroke="#bdbab2" stroke-width="0.8"/>
      <rect x="26" y="46" width="28" height="62" fill="#fff" stroke="#e8e6e0" stroke-width="0.4"/>
      <rect x="29" y="50" width="22" height="3" fill="#5b3a8a"/>
      <rect x="29" y="56" width="14" height="2" fill="#0b0b0c"/>
      <line x1="29" y1="64" x2="48" y2="64" stroke="#9b9aa0" stroke-width="0.5"/>
      <line x1="29" y1="68" x2="46" y2="68" stroke="#9b9aa0" stroke-width="0.5"/>
      <line x1="29" y1="72" x2="44" y2="72" stroke="#9b9aa0" stroke-width="0.5"/>
      <rect x="29" y="80" width="14" height="2" fill="#0b0b0c"/>
      <text x="29" y="94" font-family="monospace" font-size="3" fill="#6b6b72">60 CAPS</text>
      <rect x="26" y="32" width="3" height="80" fill="#fff" opacity="0.5" rx="1.5"/>
    </symbol>

    <symbol id="logo-mark" viewBox="0 0 40 40">
      <rect x="2" y="2" width="36" height="36" fill="none" stroke="currentColor" stroke-width="1.5"/>
      <text x="20" y="27" text-anchor="middle" font-family="Newsreader, serif" font-style="italic" font-size="20" font-weight="500" fill="currentColor">G</text>
    </symbol>
  </defs>
</svg>