<svg width="24" height="24" viewBox="0 0 24 24" fill="none" xmlns="http://www.w3.org/2000/svg">
                    <path d="M12 2C17.5228 2 22 6.47715 22 12C22 17.5228 17.5228 22 12 22C6.47715 22 2 17.5228 2 12C2 6.47715 6.47715 2 12 2ZM12 15.125C11.4822 15.125 11.0625 15.5447 11.0625 16.0625C11.0625 16.5803 11.4822 17 12 17C12.5178 17 12.9375 16.5803 12.9375 16.0625C12.9375 15.5447 12.5178 15.125 12 15.125ZM12 7C11.6932 7 11.438 7.22109 11.3851 7.51266L11.375 7.625V13.25L11.3851 13.3623C11.438 13.6539 11.6932 13.875 12 13.875C12.3068 13.875 12.562 13.6539 12.6149 13.3623L12.625 13.25V7.625L12.6149 7.51266C12.562 7.22109 12.3068 7 12 7Z" fill="currentColor"/>
                </svg>