<svg width="18" height="18" viewBox="0 0 18 18" fill="none" xmlns="http://www.w3.org/2000/svg">
    <path d="M16.8744 5.29216L15.3737 6.79281C15.2207 6.9458 14.9734 6.9458 14.8204 6.79281L11.2071 3.17952C11.0541 3.02653 11.0541 2.77913 11.2071 2.62614L12.7077 1.12549C13.3164 0.516764 14.306 0.516764 14.918 1.12549L16.8744 3.08187C17.4864 3.69059 17.4864 4.68018 16.8744 5.29216ZM9.91801 3.9152L1.36983 12.4634L0.67973 16.4185C0.585329 16.9523 1.05082 17.4146 1.58468 17.3234L5.53976 16.63L14.0879 8.08187C14.2409 7.92887 14.2409 7.68148 14.0879 7.52848L10.4747 3.9152C10.3184 3.76221 10.071 3.76221 9.91801 3.9152V3.9152ZM3.53129 14.4686H5.09379V15.6502L2.99418 16.0181L1.98181 15.0057L2.34965 12.9061H3.53129V14.4686Z" fill="currentColor"/></svg>