<svg width="40" height="41" viewBox="0 0 40 41" fill="none" xmlns="http://www.w3.org/2000/svg">
<path d="M21.3843 11.5941C21.0133 11.7587 20.9141 11.9296 20.911 12.2597V30.2379C20.9188 30.5841 21.1484 30.8729 21.4421 30.9071C21.4546 30.908 34.9924 30.916 35.0799 30.916C36.3847 30.9155 37.6359 30.3186 38.5585 29.2563C39.4811 28.1941 39.9996 26.7535 40 25.2513C39.9997 24.3178 39.7992 23.3988 39.4161 22.5761C39.033 21.7533 38.4793 21.0523 37.8042 20.5353C37.1291 20.0182 36.3535 19.7012 35.5463 19.6125C34.7392 19.5237 33.9255 19.6659 33.1776 20.0264C32.787 14.922 29.0684 10.9168 24.5327 10.9168C23.4234 10.9168 22.3413 11.1687 21.3859 11.595M19.3649 12.8677L19.1423 25.6282L19.3649 30.2604C19.3727 30.5986 19.6118 30.8774 19.9071 30.8774C20.0499 30.8757 20.1866 30.8098 20.2878 30.6936C20.3889 30.5775 20.4466 30.4204 20.4484 30.2559V30.2604L20.6906 25.6282L20.4484 12.8668C20.4406 12.525 20.2016 12.2462 19.9071 12.2462C19.7638 12.2476 19.6267 12.3137 19.5253 12.4303C19.4239 12.5469 19.3664 12.7046 19.3649 12.8695M17.7189 13.9291L17.5282 25.6246C17.5282 25.6336 17.7189 30.3269 17.7189 30.3269C17.7221 30.4803 17.7768 30.6263 17.8714 30.7343C17.9661 30.8423 18.0934 30.9039 18.2267 30.9061C18.3603 30.9038 18.4879 30.8419 18.5827 30.7333C18.6774 30.6247 18.7319 30.4781 18.7345 30.3242L18.9485 25.6291L18.7345 13.9272C18.7317 13.7735 18.6772 13.6271 18.5825 13.5187C18.4878 13.4104 18.3602 13.3485 18.2267 13.3462C17.9517 13.3462 17.7243 13.6169 17.7189 13.9291ZM12.7972 15.1541L12.5457 25.6237L12.798 30.4312C12.8058 30.6885 12.9815 30.8918 13.2026 30.8918C13.4237 30.8918 13.6011 30.6876 13.6089 30.4295V30.4268L13.8925 25.6237L13.6089 15.1541C13.6011 14.8843 13.4237 14.69 13.2026 14.69C13.0956 14.6902 12.9929 14.7391 12.917 14.826C12.8411 14.9129 12.7981 15.0308 12.7972 15.1541ZM14.4244 15.4222L14.1933 25.6255L14.4253 30.3863C14.4331 30.6651 14.6237 30.8882 14.8651 30.8882C15.1065 30.8882 15.2971 30.666 15.3042 30.3845V30.3872L15.5643 25.6255L15.3042 15.4222C15.2963 15.1397 15.1049 14.9185 14.8651 14.9185C14.6253 14.9185 14.4299 15.1406 14.4244 15.4222ZM11.1824 15.4941L10.9089 25.6237L11.1824 30.46C11.1847 30.572 11.2246 30.6786 11.2938 30.7574C11.3631 30.8361 11.4562 30.8807 11.5535 30.8819C11.6511 30.8807 11.7444 30.8358 11.8136 30.7567C11.8829 30.6776 11.9227 30.5705 11.9246 30.4582L12.2316 25.6237L11.9246 15.4932C11.9167 15.2558 11.7527 15.0705 11.5535 15.0705C11.4558 15.0717 11.3624 15.1166 11.2931 15.1959C11.2238 15.2752 11.1841 15.3825 11.1824 15.495M16.0651 15.7954L15.8541 25.6264L16.0651 30.3575C16.0729 30.6588 16.2791 30.8971 16.5392 30.8971C16.7994 30.8971 17.0064 30.6597 17.0118 30.3548V30.3584L17.2494 25.6273L17.0118 15.7963C17.0106 15.6525 16.9604 15.515 16.872 15.4134C16.7836 15.3118 16.6641 15.2542 16.5392 15.253C16.2791 15.253 16.0705 15.4914 16.0651 15.7954ZM9.5809 16.273C9.5809 16.2739 9.28871 25.6219 9.28871 25.6219L9.5809 30.5086C9.58871 30.7226 9.73715 30.8918 9.91839 30.8918C10.0067 30.8899 10.0911 30.849 10.1539 30.7775C10.2168 30.706 10.2533 30.6094 10.2559 30.5077L10.5863 25.6219L10.2559 16.273C10.2533 16.1713 10.2168 16.0747 10.1539 16.0032C10.0911 15.9317 10.0067 15.8908 9.91839 15.889C9.73715 15.889 9.59027 16.0581 9.5809 16.273ZM7.99195 18.0126L7.67944 25.6219L7.99195 30.5383C7.99976 30.7307 8.13254 30.8819 8.29425 30.8819C8.45597 30.8819 8.58794 30.7308 8.59732 30.5374L8.95121 25.6201L8.59732 18.0108C8.58716 17.8183 8.4544 17.6654 8.29425 17.6654C8.1341 17.6654 7.99976 17.8183 7.99195 18.0108M4.85296 20.5769L4.49983 25.6183L4.85296 30.4951C4.86312 30.6462 4.96393 30.7596 5.08737 30.7596C5.2108 30.7596 5.31074 30.6462 5.32167 30.4951L5.72172 25.6183L5.32167 20.5751C5.30996 20.4249 5.21002 20.3107 5.08737 20.3107C4.96471 20.3107 4.86234 20.4258 4.85296 20.5769ZM3.30302 20.71C3.30302 20.7109 2.92957 25.6174 2.92957 25.6174L3.30302 30.3449C3.31473 30.4771 3.39829 30.5715 3.50376 30.5715C3.60922 30.5715 3.69133 30.4771 3.70383 30.3467L4.12801 25.6183L3.70459 20.7109C3.69209 20.5805 3.60766 20.4861 3.50376 20.4861C3.39985 20.4861 3.31395 20.5823 3.30302 20.7109M6.41616 20.943L6.0842 25.6201L6.41616 30.5374C6.41816 30.6184 6.44726 30.6953 6.49732 30.7523C6.54737 30.8093 6.61453 30.8418 6.6849 30.8432C6.82708 30.8432 6.94269 30.7119 6.95363 30.5374L7.33175 25.6192L6.95363 20.9403C6.94191 20.7694 6.82864 20.638 6.6849 20.638C6.54115 20.638 6.42554 20.7676 6.41616 20.943ZM1.76556 21.4835C1.76556 21.4844 1.3719 25.6183 1.3719 25.6183L1.76556 29.6631C1.77728 29.7711 1.84758 29.8493 1.93274 29.8493C2.01789 29.8493 2.0851 29.7737 2.09838 29.664L2.54526 25.6183L2.09838 21.4835C2.08276 21.3738 2.01556 21.2973 1.93197 21.2973C1.84838 21.2973 1.7765 21.3756 1.76556 21.4835ZM0.292194 23.0612L0 25.6183L0.292194 28.1323C0.303913 28.2384 0.370359 28.3122 0.453168 28.3122C0.535977 28.3122 0.600021 28.2384 0.612521 28.1323L0.959358 25.6174L0.612521 23.0594C0.600802 22.9541 0.534415 22.8795 0.453168 22.8795C0.371921 22.8795 0.303131 22.9532 0.292194 23.0594" fill="url(#paint0_linear_3817_3662)"/>
<defs>
<linearGradient id="paint0_linear_3817_3662" x1="64.4373" y1="-4.23258" x2="64.4373" y2="37.1681" gradientUnits="userSpaceOnUse">
<stop stop-color="#FAA21B"/>
<stop offset="1" stop-color="#F15623"/>
</linearGradient>
</defs>
</svg>
