<svg width="57" height="34" viewBox="0 0 57 34" fill="none" xmlns="http://www.w3.org/2000/svg">
<g clip-path="url(#clip0_1050_256)">
<rect width="57" height="34" rx="2.28893" fill="white"/>
<path fill-rule="evenodd" clip-rule="evenodd" d="M32.119 17.4451C32.119 23.6127 27.1196 28.612 20.9521 28.612C14.7844 28.612 9.78467 23.6127 9.78467 17.4451C9.78467 11.2776 14.7844 6.27783 20.9521 6.27783C27.1196 6.27783 32.119 11.2776 32.119 17.4451" fill="#CC0000"/>
<path fill-rule="evenodd" clip-rule="evenodd" d="M35.9445 6.27783C33.0585 6.27783 30.4297 7.37251 28.4475 9.16834C28.0442 9.53435 27.6678 9.92966 27.3203 10.3506H29.5766C29.8847 10.7257 30.1687 11.1202 30.4279 11.5333H26.4688C26.232 11.9129 26.0167 12.3073 25.8254 12.716H31.071C31.2503 13.0988 31.408 13.4931 31.5439 13.8983H25.3524C25.2236 14.2833 25.1149 14.6779 25.0281 15.0803H31.8679C32.0317 15.8427 32.1189 16.6336 32.1189 17.4451C32.1189 18.6848 31.9168 19.8782 31.5439 20.9926H25.3524C25.4883 21.3974 25.6461 21.7922 25.825 22.1755H31.071C30.8793 22.5832 30.6651 22.978 30.4268 23.3581H26.4688C26.727 23.77 27.0115 24.1649 27.3203 24.5396H29.5759C29.2291 24.9608 28.8523 25.3562 28.4478 25.7222C30.4298 27.518 33.0585 28.612 35.9445 28.612C42.1119 28.612 47.1114 23.6127 47.1114 17.4451C47.1114 11.2781 42.1119 6.27783 35.9445 6.27783" fill="#FF9900"/>
<path fill-rule="evenodd" clip-rule="evenodd" d="M18.3444 18.6672C18.2171 18.6527 18.161 18.6481 18.0736 18.6481C17.3864 18.6481 17.039 18.8839 17.039 19.3496C17.039 19.6364 17.2086 19.8187 17.4733 19.8187C17.9672 19.8187 18.3232 19.3485 18.3444 18.6672V18.6672ZM19.2262 20.7199C19.0646 20.7199 18.2214 20.7199 18.2214 20.7199L18.2445 20.2426C17.9381 20.6195 17.5292 20.7995 16.9738 20.7995C16.317 20.7995 15.8665 20.2867 15.8665 19.5414C15.8665 18.4196 16.6498 17.7654 17.9948 17.7654C18.1326 17.7654 18.3087 17.7781 18.4891 17.8009C18.5265 17.6487 18.5364 17.5841 18.5364 17.5021C18.5364 17.1971 18.3253 17.0828 17.759 17.0828C17.1658 17.0768 16.6767 17.2245 16.4757 17.2905C16.4884 17.2139 16.6438 16.2544 16.6438 16.2544C17.2477 16.0769 17.6462 16.0105 18.0946 16.0105C19.1359 16.0105 19.6873 16.4778 19.6861 17.3612C19.6882 17.5983 19.6489 17.8896 19.588 18.274C19.4828 18.9411 19.2569 20.3718 19.2262 20.7199V20.7199Z" fill="#000066"/>
<path fill-rule="evenodd" clip-rule="evenodd" d="M15.3591 20.7198H14.1466L14.8415 16.3658L13.2905 20.7198H12.4644L12.3622 16.3901L11.6323 20.7198H10.4976L11.4454 15.0554H13.1888L13.2942 18.226L14.3578 15.0554H16.2967L15.3591 20.7198" fill="#000066"/>
<path fill-rule="evenodd" clip-rule="evenodd" d="M37.4424 18.6672C37.3152 18.6527 37.2597 18.6481 37.1726 18.6481C36.4848 18.6481 36.1377 18.8839 36.1377 19.3496C36.1377 19.6364 36.3066 19.8187 36.572 19.8187C37.0656 19.8187 37.4218 19.3485 37.4424 18.6672V18.6672ZM38.3249 20.7199C38.1629 20.7199 37.3204 20.7199 37.3204 20.7199L37.3432 20.2426C37.0368 20.6195 36.6281 20.7995 36.0731 20.7995C35.4153 20.7995 34.9653 20.2867 34.9653 19.5414C34.9653 18.4196 35.7491 17.7654 37.0936 17.7654C37.2313 17.7654 37.4071 17.7781 37.5876 17.8009C37.6252 17.6487 37.6349 17.5841 37.6349 17.5021C37.6349 17.1971 37.4238 17.0828 36.8575 17.0828C36.2644 17.0768 35.7754 17.2245 35.5736 17.2905C35.5871 17.2139 35.7429 16.2544 35.7429 16.2544C36.3464 16.0769 36.7453 16.0105 37.193 16.0105C38.2349 16.0105 38.7857 16.4778 38.7846 17.3612C38.7867 17.5983 38.7477 17.8896 38.6865 18.274C38.5817 18.9411 38.3553 20.3718 38.3249 20.7199V20.7199Z" fill="#000066"/>
<path fill-rule="evenodd" clip-rule="evenodd" d="M24.6135 20.6498C24.2815 20.7542 24.023 20.7994 23.7424 20.7994C23.1228 20.7994 22.7845 20.4433 22.7845 19.7873C22.7758 19.5837 22.8736 19.0481 22.9505 18.5596C23.0208 18.1292 23.4764 15.416 23.4764 15.416H24.6812L24.5406 16.1133H25.2686L25.1043 17.2205H24.3738C24.2339 18.0963 24.0343 19.1877 24.032 19.3324C24.032 19.5699 24.1587 19.6737 24.4472 19.6737C24.5854 19.6737 24.6924 19.6596 24.7741 19.6303L24.6135 20.6498" fill="#000066"/>
<path fill-rule="evenodd" clip-rule="evenodd" d="M28.3083 20.6126C27.8943 20.7392 27.4953 20.8009 27.072 20.7995C25.7228 20.7978 25.0195 20.0936 25.0195 18.7445C25.0195 17.1699 25.9141 16.0105 27.1288 16.0105C28.1222 16.0105 28.7569 16.6596 28.7569 17.6771C28.7569 18.0154 28.7135 18.3451 28.6082 18.8103H26.2085C26.1274 19.4786 26.5549 19.7569 27.2564 19.7569C27.6871 19.7569 28.0765 19.668 28.509 19.4673L28.3083 20.6126V20.6126ZM27.6312 17.8815C27.6381 17.7853 27.7588 17.0591 27.07 17.0591C26.6867 17.0591 26.4119 17.3517 26.3005 17.8815H27.6312V17.8815Z" fill="#000066"/>
<path fill-rule="evenodd" clip-rule="evenodd" d="M19.9532 17.5698C19.9532 18.152 20.2355 18.5539 20.8761 18.8558C21.3669 19.0868 21.4433 19.1551 21.4433 19.3643C21.4433 19.651 21.2266 19.7813 20.7471 19.7813C20.3852 19.7813 20.0488 19.7244 19.6607 19.599C19.6607 19.599 19.5017 20.6148 19.4941 20.6633C19.7696 20.7229 20.0153 20.7785 20.7558 20.7995C22.0349 20.7995 22.6257 20.3125 22.6257 19.2598C22.6257 18.6269 22.3786 18.2555 21.7712 17.9759C21.2631 17.7428 21.2044 17.6906 21.2044 17.4756C21.2044 17.2266 21.4061 17.0994 21.7977 17.0994C22.0358 17.0994 22.3606 17.1248 22.6689 17.1684L22.8414 16.1C22.5276 16.05 22.0515 16.0105 21.7744 16.0105C20.4183 16.0105 19.9487 16.7187 19.9532 17.5698" fill="#000066"/>
<path fill-rule="evenodd" clip-rule="evenodd" d="M34.2046 16.1322C34.5413 16.1322 34.8558 16.2198 35.288 16.4381L35.4865 15.2087C35.3083 15.1388 34.6834 14.7292 34.154 14.7292C33.3429 14.7292 32.6564 15.1323 32.1744 15.796C31.4706 15.5631 31.181 16.0339 30.8267 16.5034L30.5117 16.5768C30.5355 16.4224 30.5572 16.269 30.5503 16.1135H29.4364C29.2846 17.5396 29.0151 18.9836 28.8043 20.4102L28.749 20.7201H29.9619C30.1644 19.4046 30.275 18.5627 30.3424 17.9923L30.7991 17.7392C30.8678 17.4849 31.0808 17.3995 31.5093 17.4099C31.4533 17.7103 31.423 18.0267 31.423 18.3541C31.423 19.8614 32.2373 20.7997 33.5418 20.7997C33.878 20.7997 34.1667 20.7556 34.6137 20.6338L34.8262 19.343C34.4241 19.5405 34.095 19.6335 33.7966 19.6335C33.0918 19.6335 32.6652 19.1131 32.6652 18.2535C32.6652 17.006 33.2991 16.1322 34.2046 16.1322" fill="#000066"/>
<path fill-rule="evenodd" clip-rule="evenodd" d="M44.469 15.0554L44.1995 16.6919C43.8686 16.2558 43.5125 15.9399 43.0424 15.9399C42.4307 15.9399 41.8739 16.4037 41.5093 17.0867C41.0016 16.9813 40.4769 16.8022 40.4769 16.8022L40.4766 16.8066C40.517 16.4249 40.5341 16.1926 40.5301 16.1132H39.4163C39.2651 17.5393 38.9952 18.9833 38.7845 20.4099L38.7288 20.7198H39.942C40.1058 19.6567 40.2309 18.7729 40.3232 18.073C40.7379 17.6982 40.9455 17.3722 41.3636 17.3934C41.1781 17.842 41.0699 18.3584 41.0699 18.8881C41.0699 20.0393 41.6519 20.7994 42.5336 20.7994C42.978 20.7994 43.3189 20.646 43.6514 20.2909L43.5942 20.7194H44.7413L45.6648 15.0554H44.469V15.0554ZM42.9528 19.6555C42.5402 19.6555 42.3313 19.3495 42.3313 18.7473C42.3313 17.8418 42.7218 17.2 43.2715 17.2C43.6882 17.2 43.9141 17.5169 43.9141 18.1021C43.9141 19.0154 43.517 19.6555 42.9528 19.6555V19.6555Z" fill="#000066"/>
<path fill-rule="evenodd" clip-rule="evenodd" d="M15.7076 20.3836H14.4954L15.1902 16.0295L13.6395 20.3836H12.813L12.711 16.0548L11.9809 20.3836H10.8462L11.794 14.7197H13.5375L13.5862 18.226L14.7626 14.7197H16.6454L15.7076 20.3836" fill="white"/>
<path fill-rule="evenodd" clip-rule="evenodd" d="M18.6926 18.3323C18.5656 18.3175 18.5095 18.3134 18.4221 18.3134C17.7349 18.3134 17.3872 18.5488 17.3872 19.0142C17.3872 19.3006 17.557 19.484 17.8219 19.484C18.3157 19.484 18.6716 19.0138 18.6926 18.3323V18.3323ZM19.5745 20.384C19.413 20.384 18.5702 20.384 18.5702 20.384L18.5931 19.907C18.2867 20.2838 17.8778 20.464 17.3225 20.464C16.6655 20.464 16.2151 19.9504 16.2151 19.2053C16.2151 18.0833 16.9986 17.43 18.3436 17.43C18.481 17.43 18.6572 17.4425 18.8377 17.4658C18.8751 17.3133 18.885 17.2486 18.885 17.1661C18.885 16.8614 18.6739 16.7479 18.1076 16.7479C17.5143 16.7408 17.0253 16.8885 16.8241 16.9544C16.837 16.8781 16.9923 15.9186 16.9923 15.9186C17.5964 15.7414 17.9949 15.6746 18.4433 15.6746C19.4843 15.6746 20.0356 16.1424 20.0347 17.0255C20.0367 17.2621 19.9977 17.5549 19.9366 17.9382C19.8313 18.6048 19.6054 20.0363 19.5745 20.384V20.384Z" fill="white"/>
<path fill-rule="evenodd" clip-rule="evenodd" d="M35.8357 14.8723L35.6372 16.1015C35.2043 15.8839 34.8907 15.7958 34.5543 15.7958C33.6492 15.7958 33.0142 16.6706 33.0142 17.9183C33.0142 18.7779 33.4409 19.2973 34.1458 19.2973C34.4444 19.2973 34.7742 19.205 35.1753 19.0068L34.9623 20.2975C34.516 20.4191 34.2271 20.4636 33.8911 20.4636C32.5857 20.4636 31.7727 19.5251 31.7727 18.0182C31.7727 15.9933 32.8967 14.5781 34.5033 14.5781C35.0328 14.5781 35.658 14.8024 35.8357 14.8723" fill="white"/>
<path fill-rule="evenodd" clip-rule="evenodd" d="M37.7917 18.3323C37.6653 18.3175 37.609 18.3134 37.5218 18.3134C36.835 18.3134 36.4871 18.5488 36.4871 19.0142C36.4871 19.3006 36.6567 19.484 36.9215 19.484C37.4151 19.484 37.7714 19.0138 37.7917 18.3323V18.3323ZM38.6734 20.384C38.5121 20.384 37.6691 20.384 37.6691 20.384L37.6919 19.907C37.3855 20.2838 36.9766 20.464 36.4218 20.464C35.764 20.464 35.3142 19.9504 35.3142 19.2053C35.3142 18.0833 36.0971 17.43 37.4423 17.43C37.5798 17.43 37.7556 17.4425 37.9359 17.4658C37.9735 17.3133 37.9834 17.2486 37.9834 17.1661C37.9834 16.8614 37.7729 16.7479 37.2062 16.7479C36.6134 16.7408 36.1246 16.8885 35.9231 16.9544C35.9358 16.8781 36.0912 15.9186 36.0912 15.9186C36.6953 15.7414 37.0934 15.6746 37.5419 15.6746C38.5829 15.6746 39.1347 16.1424 39.1333 17.0255C39.1358 17.2621 39.0964 17.5549 39.0354 17.9382C38.9304 18.6048 38.7045 20.0363 38.6734 20.384V20.384Z" fill="white"/>
<path fill-rule="evenodd" clip-rule="evenodd" d="M24.9628 20.314C24.6312 20.4184 24.3723 20.4638 24.0921 20.4638C23.4723 20.4638 23.1338 20.1075 23.1338 19.4522C23.1253 19.2479 23.2233 18.7132 23.3004 18.2241C23.3701 17.7934 23.826 15.0806 23.826 15.0806H25.0311L24.8901 15.7776H25.5088L25.344 16.8845H24.7233C24.5834 17.7612 24.3838 18.8519 24.3813 18.9966C24.3813 19.2348 24.5086 19.3379 24.7968 19.3379C24.9349 19.3379 25.0417 19.3243 25.1238 19.2943L24.9628 20.314" fill="white"/>
<path fill-rule="evenodd" clip-rule="evenodd" d="M28.6579 20.2776C28.2437 20.4045 27.8438 20.4643 27.421 20.464C26.0716 20.4631 25.3689 19.758 25.3689 18.4091C25.3689 16.834 26.2633 15.6746 27.4771 15.6746C28.4715 15.6746 29.106 16.3236 29.106 17.3424C29.106 17.68 29.0618 18.0095 28.9577 18.4749H26.5576C26.4763 19.1432 26.9042 19.422 27.605 19.422C28.0362 19.422 28.4253 19.3327 28.8584 19.1316L28.6579 20.2776V20.2776ZM27.9805 17.5462C27.9871 17.4499 28.1083 16.724 27.4197 16.724C27.036 16.724 26.7613 17.0171 26.6496 17.5462H27.9805V17.5462Z" fill="white"/>
<path fill-rule="evenodd" clip-rule="evenodd" d="M20.3014 17.2339C20.3014 17.8172 20.5842 18.2181 21.2249 18.5204C21.7157 18.7512 21.7918 18.8195 21.7918 19.0288C21.7918 19.316 21.5752 19.4455 21.0954 19.4455C20.7338 19.4455 20.3973 19.3894 20.009 19.2643C20.009 19.2643 19.8502 20.2794 19.8428 20.3272C20.1181 20.3875 20.3639 20.4426 21.104 20.464C22.3835 20.464 22.9743 19.9771 22.9743 18.9244C22.9743 18.2912 22.7269 17.9199 22.1197 17.641C21.6114 17.4072 21.553 17.3555 21.553 17.1402C21.553 16.8912 21.7545 16.7631 22.1465 16.7631C22.384 16.7631 22.7093 16.7895 23.0174 16.833L23.19 15.7647C22.876 15.7152 22.4003 15.6746 22.123 15.6746C20.7666 15.6746 20.2974 16.3829 20.3014 17.2339" fill="white"/>
<path fill-rule="evenodd" clip-rule="evenodd" d="M45.09 20.3836H43.9433L44.0001 19.9549C43.6675 20.3101 43.3267 20.4635 42.8823 20.4635C42.0014 20.4635 41.4185 19.7043 41.4185 18.5519C41.4185 17.0197 42.3222 15.7283 43.3911 15.7283C43.8612 15.7283 44.2172 15.9203 44.5488 16.3565L44.8177 14.7197H46.0134L45.09 20.3836V20.3836ZM43.3016 19.3193C43.8665 19.3193 44.2629 18.6795 44.2629 17.7672C44.2629 17.1818 44.0372 16.8638 43.6205 16.8638C43.0706 16.8638 42.6803 17.5058 42.6803 18.4116C42.6803 19.0145 42.8894 19.3193 43.3016 19.3193V19.3193Z" fill="white"/>
<path fill-rule="evenodd" clip-rule="evenodd" d="M39.7655 15.7775C39.6139 17.2032 39.3443 18.6472 39.1334 20.074L39.0781 20.3837H40.2907C40.7245 17.5668 40.8288 17.0171 41.5093 17.0857C41.6174 16.5092 41.8192 16.0043 41.9693 15.7498C41.4616 15.6439 41.178 15.9308 40.8064 16.4762C40.836 16.2402 40.8895 16.0113 40.8794 15.7775H39.7655" fill="white"/>
<path fill-rule="evenodd" clip-rule="evenodd" d="M29.7858 15.7775C29.6335 17.2032 29.3635 18.6472 29.153 20.074L29.0979 20.3837H30.3108C30.7448 17.5668 30.8487 17.0171 31.5282 17.0857C31.637 16.5092 31.8391 16.0043 31.9889 15.7498C31.4817 15.6439 31.1976 15.9308 30.8267 16.4762C30.856 16.2402 30.9098 16.0113 30.8992 15.7775H29.7858" fill="white"/>
</g>
<defs>
<clipPath id="clip0_1050_256">
<rect width="57" height="34" fill="white"/>
</clipPath>
</defs>
</svg>
