<svg width="55" height="55" viewBox="0 0 55 55" fill="none" xmlns="http://www.w3.org/2000/svg">
<g clip-path="url(#clip0_9_600)">
<path d="M33.7652 31.4115C34.0717 31.1049 34.5671 31.1049 34.8737 31.4115L36.7236 33.2649L38.3846 31.604L34.9271 26.1077C34.6384 25.6622 34.0004 25.6622 33.7117 26.1077L30.2899 31.5541L31.5766 33.6L33.7652 31.4115Z" fill="#000000"/>
<path d="M44.8895 41.9478L39.24 32.9656L37.2796 34.926C36.9838 35.2182 36.467 35.2182 36.1711 34.926L34.3212 33.0725L32.4357 34.9581L36.1604 40.8749C36.5703 41.5236 36.6416 42.3327 36.3636 43.0313H44.2907C44.8432 43.0313 45.1925 42.4182 44.8931 41.9478H44.8895Z" fill="#000000"/>
<path d="M19.0551 31.3937L21.4253 29.0234C21.7212 28.7311 22.238 28.7311 22.5339 29.0234L24.9042 31.3937L27.0143 29.2836L22.8261 22.6218V18.7188H28.2618C28.5754 18.7188 28.8606 18.5442 29.0067 18.2697C29.1529 17.9917 29.1351 17.6602 28.9568 17.4L27.5667 15.3576L28.9568 13.3153C29.1315 13.0586 29.1493 12.7236 29.0067 12.4456C28.8606 12.1675 28.5754 11.9965 28.2618 11.9965H21.985C21.518 11.9965 21.1402 12.3743 21.1402 12.8412V22.6218L16.9485 29.2836L19.0586 31.3937H19.0551Z" fill="#000000"/>
<path d="M27.8697 30.6451L25.4602 33.0546C25.3141 33.2008 25.1145 33.2828 24.9077 33.2828C24.701 33.2828 24.5014 33.2008 24.3553 33.0546L21.985 30.6843L19.6147 33.0546C19.3188 33.3469 18.802 33.3469 18.5062 33.0546L16.0966 30.6451L9.13546 41.7053C8.7719 42.2828 9.18893 43.0348 9.86972 43.0348H34.0931C34.7739 43.0348 35.1909 42.2828 34.8273 41.7053L27.8697 30.6451Z" fill="#000000"/>
</g>
<defs>
<clipPath id="clip0_9_600">
<rect width="36" height="31.0349" fill="white" transform="translate(9 12)"/>
</clipPath>
</defs>
</svg>
