<svg class="fera-overallRatingBanner-leftRibbon" width="39" height="86" viewBox="0 0 39 86" fill="none" xmlns="http://www.w3.org/2000/svg"><!-- Left Ribbon SVG Path Here -->
                <path d="M38.4338 0.898905C25.5381 0.629314 27.1354 7.98277 27.1354 7.98277C27.1354 7.98277 33.0173 12.6567 38.4338 0.898905Z" fill="#171717"/>
                <path d="M24.3413 0C14.2933 8.11026 20.2253 12.7161 20.2253 12.7161C20.2253 12.7161 27.7213 12.4899 24.3413 0Z" fill="#171717"/>
                <path d="M14.4346 9.53403C5.9448 19.2772 12.5845 22.7784 12.5845 22.7784C12.5845 22.7784 19.9275 21.251 14.4346 9.53403Z" fill="#171717"/>
                <path d="M6.57925 20.7358C1.91907 32.7965 9.34871 33.8139 9.34871 33.8139C9.34871 33.8139 15.7297 29.8499 6.57925 20.7358Z" fill="#171717"/>
                <path d="M1.95875 31.9378C1.69017 44.8825 9.01575 43.2792 9.01575 43.2792C9.01575 43.2792 13.6634 37.358 1.95875 31.9378Z" fill="#171717"/>
                <path d="M0.5 42.3293C2.46694 55.1175 9.4124 52.2654 9.4124 52.2654C9.4124 52.2654 12.9722 45.638 0.5 42.3293Z" fill="#171717"/>
                <path d="M3.06501 53.4426C7.22248 65.694 13.5652 61.6753 13.5652 61.6753C13.5652 61.6753 15.9079 54.5244 3.06501 53.4426Z" fill="#171717"/>
                <path d="M8.15035 64.1689C14.365 75.5167 19.9121 70.4512 19.9121 70.4512C19.9121 70.4512 20.993 63.0013 8.15035 64.1689Z" fill="#171717"/>
                <path d="M14.7472 74.8118C24.4534 83.3339 27.9413 76.6689 27.9413 76.6689C27.9413 76.6689 26.4156 69.3107 14.7472 74.8118Z" fill="#171717"/>
                <path d="M23.9011 82.7037C34.5709 89.9796 37.2135 82.9406 37.2135 82.9406C37.2135 82.9406 34.8134 75.8173 23.9011 82.7037Z" fill="#171717"/>
                <path d="M32.7205 12.4051C20.0733 9.89687 20.3703 17.4167 20.3703 17.4167C20.3703 17.4167 25.3579 23.0361 32.7205 12.4051Z" fill="#171717"/>
                <path d="M23.8184 20.5236C11.0787 22.498 13.9199 29.4699 13.9199 29.4699C13.9199 29.4699 20.5222 33.0432 23.8184 20.5236Z" fill="#171717"/>
                <path d="M20.3732 30.6048C8.16826 34.7781 12.1717 41.145 12.1717 41.145C12.1717 41.145 19.2914 43.5093 20.3732 30.6048Z" fill="#171717"/>
                <path d="M18.9407 41.694C7.63593 47.9323 12.6822 53.5005 12.6822 53.5005C12.6822 53.5005 20.108 54.5729 18.9407 41.694Z" fill="#171717"/>
                <path d="M21.5292 49.7923C11.4812 57.9026 17.4131 62.5085 17.4131 62.5085C17.4131 62.5085 24.9092 62.2822 21.5292 49.7923Z" fill="#171717"/>
                <path d="M24.9437 57.3727C18.2668 68.4382 25.407 70.739 25.407 70.739C25.407 70.739 32.374 67.9502 24.9437 57.3727Z" fill="#171717"/>
                <path d="M30.5324 67.2795C30.2638 80.2242 37.5894 78.6208 37.5894 78.6208C37.5894 78.6208 42.2371 72.6997 30.5324 67.2795Z" fill="#171717"/>
            </svg>