<svg width="55" height="55" viewBox="0 0 55 55" fill="none" xmlns="http://www.w3.org/2000/svg">
<g clip-path="url(#clip0_9_600)">
<path d="M16.7806 17.1905H26.033C26.6342 17.1905 27.1204 16.7043 27.1204 16.1031V14.3736C27.1204 13.7724 26.6342 13.2862 26.033 13.2862H24.3183C23.988 11.9724 22.8152 11 21.4012 11C19.9872 11 18.8256 11.9724 18.499 13.2862H16.7843C16.1831 13.2862 15.6969 13.7724 15.6969 14.3736V16.1031C15.6969 16.7043 16.1831 17.1905 16.7843 17.1905H16.7806ZM21.4012 12.774C22.0878 12.774 22.6445 13.3159 22.6445 14.0025C22.6445 14.6891 22.0878 15.2346 21.4012 15.2346C20.7146 15.2346 20.1728 14.6891 20.1728 14.0025C20.1728 13.3159 20.7295 12.774 21.4012 12.774Z" fill="#000000"/>
<path d="M43.2907 24.3905H28.7237C27.1427 24.3905 25.8994 25.7377 26.0219 27.315L27.1056 40.9765C27.2169 42.3868 28.3934 43.4705 29.8074 43.4705H35.2408V35.4726C35.2408 35.0495 35.5823 34.7043 36.0091 34.7043C36.4359 34.7043 36.7773 35.0495 36.7773 35.4726V43.4705H42.2107C43.6247 43.4705 44.8012 42.3831 44.9126 40.9765L45.9963 27.315C46.1225 25.7377 44.8755 24.3905 43.2944 24.3905H43.2907ZM40.0915 30.2841C40.0915 31.0152 39.4903 31.6165 38.7592 31.6165H37.3489L38.0874 29.6235C38.1691 29.4045 38.1023 29.1447 37.9056 28.9926C37.6643 28.807 37.3155 28.8478 37.1299 29.0928L35.1777 31.6165H33.259C32.5278 31.6165 31.9266 31.0152 31.9266 30.2841V29.0148C31.9266 28.2837 32.5278 27.6825 33.259 27.6825H38.7592C39.4903 27.6825 40.0915 28.2837 40.0915 29.0148V30.2841Z" fill="#000000"/>
<path d="M24.3926 27.4523C24.2849 26.235 24.7117 25.0437 25.5282 24.1566C26.3559 23.2585 27.5138 22.7501 28.7311 22.7501H32.821V17.5764C32.821 16.0771 31.5926 14.8597 30.0932 14.8597H28.7348V16.1105C28.7348 17.5987 27.5287 18.8049 26.0404 18.8049H16.788C15.2998 18.8049 14.0825 17.5987 14.0825 16.1105V14.8597H12.7241C11.2247 14.8597 10.0074 16.0771 10.0074 17.5764V39.0206C10.0074 40.5199 11.2247 41.7373 12.7241 41.7373H25.5654C25.5171 41.5369 25.4837 41.3253 25.4726 41.11L24.3963 27.4523H24.3926ZM20.5996 38.0371H14.2049C13.7559 38.0371 13.3996 37.6696 13.3996 37.2354C13.3996 36.8012 13.7559 36.43 14.2049 36.43H20.5959C21.0449 36.43 21.3975 36.7863 21.3975 37.2354C21.3975 37.6845 21.0449 38.0371 20.5959 38.0371H20.5996ZM20.5996 33.487H14.2049C13.7559 33.487 13.3996 33.1307 13.3996 32.6853C13.3996 32.2399 13.7559 31.8837 14.2049 31.8837H20.5959C21.0449 31.8837 21.3975 32.2399 21.3975 32.6853C21.3975 33.1307 21.0449 33.487 20.5959 33.487H20.5996ZM20.5996 28.9406H14.2049C13.7559 28.9406 13.3996 28.5843 13.3996 28.1352C13.3996 27.6861 13.7559 27.3336 14.2049 27.3336H20.5959C21.0449 27.3336 21.3975 27.6898 21.3975 28.1352C21.3975 28.5806 21.0449 28.9406 20.5959 28.9406H20.5996ZM20.5996 24.3905H14.2049C13.7559 24.3905 13.3996 24.0342 13.3996 23.5888C13.3996 23.1435 13.7559 22.7872 14.2049 22.7872H20.5959C21.0449 22.7872 21.3975 23.1397 21.3975 23.5888C21.3975 24.0379 21.0449 24.3905 20.5959 24.3905H20.5996Z" fill="#000000"/>
</g>
<defs>
<clipPath id="clip0_9_600">
<rect width="36" height="32.4742" fill="white" transform="translate(10 11)"/>
</clipPath>
</defs>
</svg>
