<svg width="57" height="34" viewBox="0 0 57 34" fill="none" xmlns="http://www.w3.org/2000/svg">
<g clip-path="url(#clip0_1050_317)">
<rect width="57" height="34" rx="2.28893" fill="white"/>
<path fill-rule="evenodd" clip-rule="evenodd" d="M23.7424 22.6299L25.5019 11.7151H28.3143L26.555 22.6299H23.7424" fill="#26337A"/>
<path fill-rule="evenodd" clip-rule="evenodd" d="M36.7562 11.9828C36.2001 11.7638 35.3256 11.5249 34.2361 11.5249C31.4555 11.5249 29.4982 13.0061 29.4819 15.1271C29.4642 16.696 30.8786 17.5709 31.945 18.0924C33.0409 18.6269 33.4091 18.9689 33.4048 19.4469C33.3972 20.1779 32.53 20.5128 31.7214 20.5128C30.5954 20.5128 29.9971 20.3479 29.0722 19.9404L28.7104 19.7667L28.3171 22.2099C28.973 22.5139 30.1887 22.7777 31.4505 22.7916C34.4056 22.7916 36.3258 21.3283 36.3483 19.0634C36.3584 17.8193 35.609 16.8763 33.9859 16.0978C33.0031 15.5916 32.3999 15.2563 32.4068 14.7441C32.4074 14.2905 32.9164 13.8048 34.0179 13.8048C34.9379 13.79 35.6038 14.0024 36.1228 14.2242L36.3753 14.349L36.7562 11.9828" fill="#26337A"/>
<path fill-rule="evenodd" clip-rule="evenodd" d="M40.5018 18.7603C40.7349 18.1329 41.6222 15.7094 41.6222 15.7094C41.6058 15.7382 41.854 15.0772 41.996 14.6681L42.1858 15.6094C42.1858 15.6094 42.7255 18.2146 42.8367 18.7603C42.3988 18.7603 41.051 18.7603 40.5018 18.7603V18.7603ZM43.971 11.7266H41.7975C41.1234 11.7266 40.6187 11.9197 40.3234 12.6313L36.1467 22.6341H39.1007C39.1007 22.6341 39.5827 21.2885 39.692 20.9932C40.0142 20.9932 42.8846 20.9988 43.2943 20.9988C43.3786 21.3797 43.6368 22.6341 43.6368 22.6341H46.2472L43.971 11.7266V11.7266Z" fill="#26337A"/>
<path fill-rule="evenodd" clip-rule="evenodd" d="M21.3828 11.7244L18.63 19.1656L18.3352 17.653C17.8222 15.9102 16.2254 14.0212 14.4392 13.0747L16.9576 22.6205L19.9341 22.6187L24.3632 11.7244H21.3828" fill="#26337A"/>
<path fill-rule="evenodd" clip-rule="evenodd" d="M16.0744 11.7168H11.539L11.5017 11.9429C15.0308 12.8471 17.3658 15.0295 18.335 17.6529L17.3494 12.6377C17.1794 11.946 16.6852 11.741 16.0744 11.7168" fill="#EC982D"/>
</g>
<defs>
<clipPath id="clip0_1050_317">
<rect width="57" height="34" fill="white"/>
</clipPath>
</defs>
</svg>
