<svg width="40" height="41" viewBox="0 0 40 41" fill="none" xmlns="http://www.w3.org/2000/svg">
<path d="M31.8306 18.6474C25.3838 14.8187 14.7499 14.4668 8.59553 16.3346C7.60698 16.6344 6.562 16.0767 6.2627 15.0883C5.96321 14.0994 6.52045 13.0549 7.50936 12.7546C14.5743 10.6102 26.3182 11.0243 33.74 15.4299C34.6291 15.9577 34.9204 17.1057 34.3936 17.9931C33.8663 18.882 32.7172 19.1752 31.8304 18.6474M31.6194 24.3179C31.1671 25.0519 30.2074 25.2821 29.4745 24.8314C24.1 21.5278 15.9041 20.5706 9.5454 22.5008C8.72092 22.7497 7.84986 22.2851 7.59946 21.4619C7.48008 21.0661 7.5225 20.6392 7.71741 20.2747C7.91233 19.9102 8.24383 19.6378 8.63924 19.5174C15.903 17.313 24.9333 18.3805 31.1064 22.1742C31.8394 22.6256 32.0701 23.5857 31.6194 24.3179ZM29.1721 29.7638C29.0869 29.9037 28.975 30.0255 28.8427 30.1221C28.7104 30.2187 28.5604 30.2882 28.4012 30.3268C28.242 30.3653 28.0767 30.3721 27.9149 30.3466C27.7531 30.3212 27.5979 30.2642 27.4581 30.1787C22.7616 27.3083 16.8502 26.6601 9.88841 28.2503C9.72889 28.2868 9.56375 28.2915 9.40242 28.2641C9.24109 28.2367 9.08673 28.1779 8.94815 28.0908C8.80958 28.0038 8.68951 27.8903 8.5948 27.7569C8.50009 27.6235 8.43259 27.4727 8.39617 27.3131C8.3595 27.1536 8.35466 26.9883 8.38194 26.8269C8.40921 26.6654 8.46807 26.5109 8.55514 26.3723C8.64221 26.2336 8.75578 26.1135 8.88934 26.0188C9.02291 25.9241 9.17384 25.8566 9.3335 25.8204C16.9519 24.079 23.4869 24.8284 28.7585 28.0497C28.8983 28.135 29.0198 28.2471 29.1163 28.3794C29.2127 28.5118 29.2821 28.6618 29.3205 28.821C29.3589 28.9802 29.3656 29.1454 29.3402 29.3072C29.3148 29.4689 29.2575 29.6241 29.1721 29.7638ZM19.9996 0.916992C8.95449 0.916992 0 9.87112 0 20.9166C0 31.9632 8.95449 40.917 19.9998 40.917C31.0457 40.917 40 31.9632 40 20.9166C40 9.8713 31.0457 0.916992 19.9996 0.916992Z" fill="#1ED660"/>
</svg>
