<svg width="32" height="33" viewBox="0 0 32 33" fill="none" xmlns="http://www.w3.org/2000/svg">
<path d="M13.855 29.287C7.68 28.182 3 22.852 3 16.417C3 9.26699 8.85 3.41699 16 3.41699C23.15 3.41699 29 9.26699 29 16.417C29 22.852 24.32 28.182 18.145 29.287L17.43 28.702H14.57L13.855 29.287Z" fill="url(#paint0_linear_5509_17578)"/>
<path d="M21.07 20.057L21.655 16.417H18.21V13.882C18.21 12.842 18.6 12.062 20.16 12.062H21.85V8.74702C20.94 8.61702 19.9 8.48702 18.99 8.48702C16 8.48702 13.92 10.307 13.92 13.557V16.417H10.67V20.057H13.92V29.222C14.635 29.352 15.35 29.417 16.065 29.417C16.78 29.417 17.495 29.352 18.21 29.222V20.057H21.07Z" fill="white"/>
<defs>
<linearGradient id="paint0_linear_5509_17578" x1="16.0006" y1="28.6389" x2="16.0006" y2="3.41218" gradientUnits="userSpaceOnUse">
<stop stop-color="#0062E0"/>
<stop offset="1" stop-color="#19AFFF"/>
</linearGradient>
</defs>
</svg>
