<svg width="55" height="55" viewBox="0 0 55 55" fill="none" xmlns="http://www.w3.org/2000/svg">
<g clip-path="url(#clip0_9_600)">
<path d="M19.5143 11.6829L19.4543 11.8071L19.3171 11.7986C19.2571 11.7986 19.2014 11.7857 19.1457 11.7771C19.0857 11.7686 19.0214 11.7557 18.9614 11.7557C16.3171 11.7557 14.0543 13.71 13.4586 16.5171C13.5443 18.3214 14.2771 20.7043 17.2557 21.8743C17.5043 21.9729 17.6971 22.1571 17.8043 22.4014C17.9114 22.6457 17.9157 22.9157 17.8171 23.1643C17.62 23.6614 17.0286 23.9271 16.5271 23.73C14.1271 22.7871 12.5071 21.0686 11.8171 18.7371C10.6729 19.6586 10 21.09 10 22.6243C10 23.94 10.4757 25.1786 11.3457 26.1043L11.4529 26.22L11.3671 26.3529C10.7886 27.2443 10.4843 28.2814 10.4843 29.3571C10.4843 30.3729 10.7757 31.3586 11.3243 32.2329C11.9157 30.87 13.1457 29.2543 15.6914 28.6029C15.9486 28.5343 16.2186 28.5729 16.4457 28.71C16.6729 28.8471 16.8357 29.0614 16.9 29.3186C17.0371 29.85 16.7157 30.3943 16.1843 30.5314C13.7886 31.1443 13.0129 32.8929 12.7814 34.2514C12.8329 36.7971 14.1443 39.1114 16.2357 40.3371C16.39 38.3443 17.92 37.14 19.4029 36.8271C21.1471 36.4543 22.7629 37.2171 23.5214 38.7686C23.7271 39.1886 23.83 39.6129 23.83 40.0286C23.83 40.5771 23.3843 41.0229 22.8357 41.0229C22.2871 41.0229 21.8371 40.5771 21.8371 40.0286C21.8371 39.9171 21.8029 39.7843 21.73 39.6429C21.4 38.9657 20.7957 38.73 20.2343 38.73C20.0886 38.73 19.9471 38.7471 19.8143 38.7729C19.0471 38.9357 18.2543 39.5614 18.2157 40.5814C18.1943 41.1686 18.2757 41.76 18.4643 42.3986C19.3514 44.5586 21.3357 45.9686 23.5129 45.9686C24.2886 45.9686 25.0686 45.7714 25.8271 45.3857V9.70286C25.12 9.24 24.3229 9 23.5129 9C21.8243 9 20.29 10.0286 19.51 11.6829H19.5143ZM17.7614 17.8971C17.5 17.8414 17.2771 17.6871 17.1357 17.4643C16.99 17.2414 16.9429 16.9757 16.9986 16.7143C17.0543 16.4529 17.2086 16.23 17.4357 16.0886C17.6586 15.9429 17.9243 15.8957 18.1857 15.9514C18.1986 15.9514 19.3171 16.2043 20.4529 17.0443C21.22 15.99 20.9371 14.6229 20.9243 14.5629C20.8643 14.3057 20.9071 14.04 21.0486 13.8129C21.19 13.5857 21.4086 13.4271 21.67 13.3671C22.2014 13.2429 22.7414 13.5771 22.8657 14.1086C22.87 14.1343 23.4443 16.6029 21.8457 18.4757C21.88 18.5186 21.91 18.5614 21.94 18.6043C22.9043 20.1129 23.14 21.9986 22.6471 24.21C22.5443 24.66 22.1371 24.99 21.6743 24.99C21.5971 24.99 21.5243 24.9814 21.4557 24.9643C21.1986 24.9086 20.9757 24.75 20.8343 24.5271C20.6929 24.3043 20.6457 24.0343 20.7014 23.7771C21.0786 22.1014 20.9286 20.7214 20.26 19.6757C19.36 18.27 17.7829 17.8929 17.7657 17.8886L17.7614 17.8971ZM18.9443 33.9214C18.8886 33.93 18.8329 33.9343 18.7771 33.9343C18.2886 33.9343 17.8771 33.5829 17.7957 33.1029C17.7057 32.5629 18.0743 32.0486 18.61 31.9586C18.8886 31.9071 21.3614 31.3757 21.2157 28.4657C21.19 27.9171 21.6143 27.45 22.1629 27.42C22.4114 27.3986 22.6643 27.4843 22.8657 27.66C23.0714 27.84 23.1957 28.0971 23.2086 28.3629C23.3971 32.1643 20.5043 33.66 18.9443 33.9171V33.9214Z" fill="#000000"/>
<path d="M44.7357 24.2143L40.2957 23.7686C40.1371 23.7557 40.0043 23.6357 39.9529 23.49C39.7814 22.9886 39.5714 22.5 39.3357 22.0286C39.2714 21.8829 39.2843 21.7115 39.3871 21.5786L42.22 18.1157C42.67 17.5629 42.6271 16.7572 42.1129 16.2429L39.4 13.53C38.8986 13.0286 38.0971 12.99 37.5271 13.44L34.0643 16.2729C33.9443 16.3629 33.7729 16.3929 33.6314 16.3115C33.1557 16.0886 32.6714 15.8786 32.17 15.7072C32.0114 15.6557 31.9086 15.5229 31.8914 15.3643L31.4286 10.9115C31.3643 10.2 30.7557 9.66003 30.0443 9.66003H28.12V21.4243C31.4929 21.4243 34.2314 24.15 34.2314 27.5229C34.2314 30.8957 31.4929 33.6343 28.12 33.6343V45.3986H30.0443C30.7557 45.3986 31.36 44.8586 31.4286 44.1472L31.8914 39.6943C31.9043 39.5357 32.0114 39.4029 32.17 39.3515C32.6714 39.18 33.16 38.97 33.6314 38.7343C33.7771 38.67 33.9486 38.6829 34.0643 38.7857L37.5271 41.6186C38.0929 42.0686 38.8986 42.0257 39.4 41.5286L42.1129 38.8157C42.6271 38.3015 42.6657 37.5 42.22 36.9429L39.3871 33.4629C39.28 33.3429 39.2671 33.1715 39.3357 33.03C39.5714 32.5543 39.7857 32.0657 39.9529 31.5686C40.0043 31.41 40.1371 31.3072 40.2957 31.29L44.7357 30.8272C45.46 30.7629 46 30.1543 46 29.4429V25.6072C46 24.8829 45.46 24.2915 44.7357 24.21V24.2143Z" fill="#000000"/>
</g>
<defs>
<clipPath id="clip0_9_600">
<rect width="36" height="36.9729" fill="white" transform="translate(10 9)"/>
</clipPath>
</defs>
</svg>
