<svg width="55" height="55" viewBox="0 0 55 55" fill="none" xmlns="http://www.w3.org/2000/svg">
<g clip-path="url(#clip0_9_600)">
<path d="M29.576 39.372L29.5616 39.3396L29.5472 39.3072L27.8804 35.0088H24.2372C22.8296 35.0088 21.6812 33.864 21.6812 32.4528C21.6812 31.0416 22.826 29.8968 24.2372 29.8968H29.612C30.5984 29.8968 31.4696 30.4548 31.9088 31.3584L34.148 25.62C34.4972 24.6372 35.444 23.9784 36.524 23.9784C37.5428 23.9784 38.4356 24.5724 38.864 25.53L38.8784 25.5624L38.8928 25.5948L40.448 29.6016L40.8296 29.22C44.4836 25.5624 44.0336 19.3596 39.476 16.332C36.1604 14.1324 31.7 14.7804 28.892 17.592L27.128 19.356L25.2128 17.4372C21.548 13.7868 15.3416 14.2332 12.3176 18.7908C10.118 22.1028 10.7624 26.5668 13.5776 29.3784L26.318 42.1188C26.7608 42.5652 27.4844 42.5652 27.9272 42.1188L30.0008 40.0452C29.8316 39.8472 29.6876 39.624 29.576 39.3756V39.372Z" fill="#000000"/>
<path d="M44.426 29.8212C43.3424 29.8212 42.4388 30.4548 42.032 31.3584H39.548L37.514 26.1204C37.334 25.7136 36.9704 25.4436 36.5204 25.4436C36.0704 25.4436 35.6636 25.7136 35.5268 26.1204L31.9124 35.3796L30.602 32.0388C30.422 31.632 30.0584 31.362 29.6084 31.362H24.2336C23.6468 31.362 23.15 31.8588 23.15 32.4456C23.15 33.0324 23.6468 33.5292 24.2336 33.5292H28.8848L30.9188 38.7672C31.0988 39.174 31.4624 39.444 31.9124 39.444C32.3624 39.444 32.7692 39.174 32.906 38.7672L36.4736 29.508L37.784 32.8488C37.964 33.2556 38.3276 33.5256 38.7776 33.5256H41.9852C42.392 34.4292 43.2956 35.0628 44.3792 35.0628C45.8228 35.0628 47 33.8892 47 32.442C47.0468 30.9984 45.8696 29.8212 44.426 29.8212Z" fill="#000000"/>
</g>
<defs>
<clipPath id="clip0_9_600">
<rect width="36" height="27.45" fill="white" transform="translate(11 15)"/>
</clipPath>
</defs>
</svg>
