<svg width="57" height="34" viewBox="0 0 57 34" fill="none" xmlns="http://www.w3.org/2000/svg">
<g clip-path="url(#clip0_1050_294)">
<rect width="57" height="34" rx="2.28893" fill="white"/>
<path fill-rule="evenodd" clip-rule="evenodd" d="M48.3008 19.837H46.2791C46.0772 19.837 45.9431 19.8446 45.8302 19.9206C45.7131 19.9956 45.6681 20.1068 45.6681 20.2536C45.6681 20.4282 45.7669 20.547 45.9107 20.5983C46.0277 20.6389 46.1534 20.6508 46.3382 20.6508L46.9394 20.6668C47.546 20.6818 47.951 20.7857 48.1979 21.0393C48.2429 21.0746 48.2699 21.1143 48.3008 21.1539V19.837ZM48.3009 22.8881C48.0314 23.2809 47.5063 23.4801 46.7955 23.4801H44.6533V22.4877H46.7869C46.9985 22.4877 47.1466 22.4599 47.2358 22.3731C47.313 22.3015 47.3669 22.1976 47.3669 22.0713C47.3669 21.9364 47.313 21.8294 47.2314 21.7652C47.1509 21.6946 47.0338 21.6625 46.8406 21.6625C45.799 21.6272 44.4996 21.6946 44.4996 20.2301C44.4996 19.5588 44.9271 18.8522 46.0912 18.8522H48.3007V17.9314H46.2478C45.6282 17.9314 45.1782 18.0793 44.8595 18.3093V17.9314H41.8229C41.3373 17.9314 40.7673 18.0514 40.4977 18.3093V17.9314H35.0752V18.3093C34.6436 17.9989 33.9155 17.9314 33.5794 17.9314H30.0026V18.3093C29.6612 17.9797 28.902 17.9314 28.4392 17.9314H24.4362L23.5202 18.9197L22.6623 17.9314H16.6826V24.389H22.5497L23.4936 23.3851L24.3827 24.389L27.9992 24.3922V22.8732H28.3548C28.8346 22.8806 29.4006 22.8613 29.8999 22.6461V24.3889H32.8828V22.7058H33.0267C33.2104 22.7058 33.2285 22.7134 33.2285 22.8963V24.3888H42.2902C42.8655 24.3888 43.4668 24.2419 43.7998 23.9755V24.3888H46.6742C47.2723 24.3888 47.8564 24.3052 48.3009 24.0911V22.8881V22.8881ZM43.8758 21.0393C44.0918 21.2621 44.2076 21.5435 44.2076 22.0198C44.2076 23.0154 43.5837 23.4801 42.465 23.4801H40.3044V22.4877H42.4563C42.6667 22.4877 42.8159 22.46 42.9094 22.3732C42.9857 22.3016 43.0404 22.1976 43.0404 22.0713C43.0404 21.9365 42.9812 21.8294 42.9051 21.7652C42.8202 21.6946 42.7032 21.6625 42.5101 21.6625C41.4727 21.6272 40.1735 21.6946 40.1735 20.2301C40.1735 19.5588 40.5965 18.8522 41.7595 18.8522H43.9833V19.8372H41.9485C41.7467 19.8372 41.6156 19.8448 41.504 19.9208C41.3825 19.9958 41.3374 20.107 41.3374 20.2538C41.3374 20.4284 41.4406 20.5472 41.5802 20.5985C41.6972 20.6391 41.8229 20.651 42.0119 20.651L42.609 20.6671C43.2112 20.6817 43.6246 20.7855 43.8758 21.0393V21.0393ZM33.8665 20.7536C33.7181 20.8413 33.5346 20.8489 33.3187 20.8489H31.9711V19.8094H33.3371C33.5346 19.8094 33.7322 19.8136 33.8665 19.893C34.0102 19.968 34.0962 20.1113 34.0962 20.3093C34.0962 20.5074 34.0102 20.6669 33.8665 20.7536V20.7536ZM34.5363 21.3295C34.7832 21.4204 34.9851 21.5833 35.0797 21.7181C35.2363 21.944 35.259 22.1549 35.2635 22.5628V23.4803H34.1498V22.9012C34.1498 22.6228 34.1767 22.2106 33.9705 21.9954C33.8084 21.8296 33.5614 21.7899 33.1567 21.7899H31.9712V23.4803H30.8565V18.8522H33.4176C33.9792 18.8522 34.3882 18.8769 34.7523 19.0707C35.1024 19.2815 35.3226 19.5704 35.3226 20.0984C35.3224 20.837 34.8283 21.214 34.5363 21.3295V21.3295ZM35.9374 18.8522H39.6397V19.8093H37.0421V20.6507H39.5763V21.595H37.0421V22.5158L39.6397 22.52V23.4803H35.9374V18.8522V18.8522ZM28.4532 20.988H27.0197V19.8094H28.4661C28.8666 19.8094 29.1446 19.9722 29.1446 20.3769C29.1446 20.7771 28.8794 20.988 28.4532 20.988V20.988ZM25.9149 23.0595L24.2117 21.1744L25.9149 19.3491V23.0595V23.0595ZM21.5167 22.5155H18.7893V21.5947H21.2247V20.6504H18.7893V19.809H21.5704L22.7838 21.1577L21.5167 22.5155V22.5155ZM30.3354 20.3769C30.3354 21.6625 29.3733 21.928 28.4036 21.928H27.0195V23.4803H24.8634L23.4975 21.9482L22.078 23.4803H17.684V18.8522H22.1456L23.5104 20.3692L24.9214 18.8522H28.4659C29.3463 18.8522 30.3354 19.0952 30.3354 20.3769V20.3769Z" fill="#0072CE"/>
<path fill-rule="evenodd" clip-rule="evenodd" d="M12.392 13.5184L11.6327 11.6739L10.8778 13.5184H12.392ZM29.1182 12.784C28.9657 12.8763 28.7855 12.8793 28.5695 12.8793H27.2219V11.8516H28.5878C28.7811 11.8516 28.9828 11.8603 29.1138 11.9351C29.2577 12.0025 29.3468 12.146 29.3468 12.3441C29.3468 12.5464 29.2621 12.7091 29.1182 12.784V12.784ZM38.7314 13.5184L37.9638 11.6739L37.2003 13.5184H38.7314V13.5184ZM20.8116 15.5154H19.6744L19.6702 11.8916L18.0617 15.5154H17.0877L15.475 11.8884V15.5154H13.2189L12.7926 14.4834H10.483L10.0524 15.5154H8.84758L10.834 10.8885H12.4821L14.3688 15.2692V10.8885H16.1793L17.631 14.0273L18.9646 10.8885H20.8115V15.5154H20.8116ZM25.3439 15.5154H21.6382V10.8885H25.3439V11.852H22.7476V12.686H25.2816V13.6344H22.7476V14.5585H25.3439V15.5154V15.5154ZM30.5688 12.1346C30.5688 12.8723 30.0749 13.2535 29.7871 13.3679C30.0298 13.46 30.2371 13.6227 30.3358 13.7575C30.4925 13.9877 30.5195 14.1932 30.5195 14.6065V15.5154H29.4006L29.3964 14.9319C29.3964 14.6535 29.4232 14.2531 29.2213 14.0305C29.0592 13.8678 28.8122 13.8325 28.4128 13.8325H27.222V15.5154H26.1128V10.8885H28.6642C29.2311 10.8885 29.6488 10.9034 30.0074 11.1101C30.3584 11.3168 30.5688 11.6185 30.5688 12.1346V12.1346ZM32.3438 15.5154H31.2119V10.8885H32.3438V15.5154V15.5154ZM45.4752 15.5154H43.9032L41.8006 12.0426V15.5154H39.5415L39.1098 14.4834H36.8054L36.3866 15.5154H35.0886C34.5494 15.5154 33.8667 15.3965 33.4801 15.0037C33.0903 14.6108 32.8874 14.0787 32.8874 13.2373C32.8874 12.5511 33.0087 11.9237 33.4854 11.428C33.844 11.0588 34.4056 10.8885 35.1701 10.8885H36.244V11.8799H35.1926C34.7878 11.8799 34.5592 11.9399 34.339 12.154C34.1499 12.3488 34.0201 12.7171 34.0201 13.2021C34.0201 13.6978 34.119 14.0552 34.3252 14.2887C34.4959 14.4718 34.8063 14.5273 35.0983 14.5273H35.5964L37.1599 10.8886H38.822L40.7001 15.265V10.8886H42.3891L44.339 14.111V10.8886H45.4752V15.5154V15.5154ZM8.83437 16.4239H10.7297L11.157 15.3962H12.1138L12.54 16.4239H16.2692V15.6382L16.6021 16.4272H18.538L18.8709 15.6264V16.4239H28.1386L28.1343 14.7369H28.3136C28.4392 14.7412 28.4758 14.7528 28.4758 14.9595V16.4239H33.2692V16.0312C33.6558 16.2377 34.2571 16.4239 35.0484 16.4239H37.065L37.4965 15.3962H38.4533L38.8753 16.4239H42.7613V15.4477L43.3498 16.4239H46.4637V9.9707H43.382V10.7328L42.9504 9.9707H39.7881V10.7328L39.3919 9.9707H35.1204C34.4054 9.9707 33.7769 10.0702 33.2692 10.3475V9.9707H30.3215V10.3475C29.9984 10.0617 29.5582 9.9707 29.0687 9.9707H18.2996L17.5771 11.6374L16.835 9.9707H13.443V10.7328L13.0704 9.9707H10.1776L8.83423 13.0389V16.4239H8.83437Z" fill="#0072CE"/>
</g>
<defs>
<clipPath id="clip0_1050_294">
<rect width="57" height="34" fill="white"/>
</clipPath>
</defs>
</svg>
