<svg width="50" height="50" viewBox="0 0 50 50" fill="none" xmlns="http://www.w3.org/2000/svg">
<mask id="mask0_36_9" style="mask-type:luminance" maskUnits="userSpaceOnUse" x="3" y="9" width="43" height="32">
<path d="M45.3637 9.29089H3.47278V40.2125H45.3637V9.29089Z" fill="white"/>
</mask>
<g mask="url(#mask0_36_9)">
<path d="M14.0153 20.9429C12.8478 19.7793 12.3086 18.282 12.4638 16.6102C12.5802 15.4273 13.0805 14.3722 13.9106 13.484C11.7346 11.9324 8.72854 11.8975 6.49041 13.6042L5.9862 13.9882C3.20512 16.1099 2.64658 20.1284 4.73727 22.9444L9.15909 28.8982L17.2308 22.7387C16.0944 22.4129 14.9307 21.866 14.0153 20.9429ZM10.2102 24.8488C9.82236 25.1436 9.2715 25.066 8.98059 24.6742L6.6262 21.5014C5.32293 19.7444 5.66818 17.2309 7.40584 15.9082C7.79368 15.6134 8.34454 15.6909 8.63545 16.0827C8.92636 16.4745 8.84875 17.0331 8.46091 17.3278C7.49509 18.0648 7.30111 19.4573 8.02641 20.4347L10.3809 23.6076C10.5282 23.8054 10.5787 24.042 10.5477 24.2669C10.5166 24.492 10.4002 24.7053 10.2064 24.8527L10.2102 24.8488Z" fill="#000000"/>
<path d="M23.309 17.1649C25.4832 17.1649 27.2459 15.4022 27.2459 13.2278C27.2459 11.0536 25.4832 9.29089 23.309 9.29089C21.1346 9.29089 19.3719 11.0536 19.3719 13.2278C19.3719 15.4022 21.1346 17.1649 23.309 17.1649Z" fill="#000000"/>
<path d="M15.0432 19.9188C16.4978 21.3811 18.8716 21.7186 20.3999 21.7535C21.292 23.9178 23.6814 29.6351 24.62 31.4466C25.1398 32.4977 26.2258 33.4713 28.076 34.0764L42.6603 40.0652C42.9705 40.1855 43.2731 40.2359 43.5718 40.2088C44.2894 40.1428 44.9449 39.6851 45.2087 38.9869C45.643 37.9978 45.1659 36.8459 44.1536 36.4386L40.9691 35.1313C40.5774 30.5544 39.7745 27.7346 38.6108 26.7415C38.0716 26.2917 37.4278 26.0744 36.7839 26.1326C35.6203 26.2373 32.5094 26.5709 30.7291 26.7532C29.9107 24.6082 28.8169 22.1646 28.2583 20.9661C29.7207 20.5859 31.6251 19.8373 32.6607 18.3208C33.3434 17.3355 33.5412 16.1951 33.2076 15.0044C32.5483 12.6926 30.0852 11.9208 28.2699 11.7113C28.3514 12.0526 28.4329 12.3939 28.4639 12.7663C28.5376 13.5848 28.4096 14.3682 28.1265 15.0897C29.0612 15.2293 29.8409 15.559 29.9494 15.9237C30.0232 16.1641 29.9843 16.296 29.8952 16.4279C29.3638 17.1764 27.4554 17.8475 26.0203 17.9755L21.5209 18.3828C20.0857 18.5146 18.0881 18.1928 17.4287 17.5566C17.3201 17.4441 17.2581 17.32 17.2581 17.0757C17.2969 16.6993 18.0067 16.2339 18.8988 15.9275C18.4876 15.2681 18.22 14.5157 18.1463 13.7011C18.1114 13.3288 18.1308 12.9797 18.1463 12.6266C16.4009 13.1813 14.1356 14.3604 13.9029 16.7537C13.7905 17.9871 14.1899 19.0732 15.0356 19.9188H15.0432ZM30.2908 30.7561C31.3536 30.6359 34.3674 30.3139 36.1439 30.1239C36.3805 30.8259 36.6171 32.0517 36.8188 33.4324L30.2908 30.7561Z" fill="#000000"/>
<path d="M23.3244 32.1137C22.4439 30.4109 20.392 25.5313 19.4495 23.27L10.2102 30.3178L14.632 36.2717C16.7227 39.0877 20.6829 39.654 23.464 37.5362L23.9682 37.1522C24.8333 36.4928 25.4849 35.6473 25.9077 34.7124C24.4686 33.8979 23.7122 32.8933 23.3282 32.1137H23.3244Z" fill="#000000"/>
</g>
</svg>
