<svg width="40" height="41" viewBox="0 0 40 41" fill="none" xmlns="http://www.w3.org/2000/svg">
<g clip-path="url(#clip0_3817_3690)">
<path d="M36.4705 29.875C35.572 31.8704 35.1391 32.7624 33.9835 34.5234C32.3657 36.9844 30.0838 40.0573 27.2648 40.0768C24.755 40.0996 24.1072 38.4395 20.699 38.4688C17.2941 38.485 16.5844 40.1094 14.0714 40.0833C11.2491 40.0573 9.09093 37.2904 7.47309 34.8327C2.94835 27.9414 2.46983 19.862 5.26606 15.5651C7.24522 12.5182 10.3735 10.7279 13.3129 10.7279C16.3077 10.7279 18.1892 12.3717 20.6632 12.3717C23.0655 12.3717 24.5271 10.7246 27.9907 10.7246C30.6079 10.7246 33.3748 12.1504 35.3539 14.6113C28.8826 18.1595 29.934 27.401 36.4705 29.875ZM25.3605 7.97396C26.6202 6.35612 27.5773 4.07422 27.2289 1.75C25.1749 1.88997 22.7726 3.20182 21.3696 4.90104C20.0968 6.45052 19.0421 8.7487 19.4523 10.972C21.6951 11.0436 24.0161 9.70573 25.3605 7.97396Z" fill="black"/>
</g>
<defs>
<clipPath id="clip0_3817_3690">
<rect width="40" height="40" fill="white" transform="translate(0 0.916992)"/>
</clipPath>
</defs>
</svg>
