<svg width="55" height="55" viewBox="0 0 55 55" fill="none" xmlns="http://www.w3.org/2000/svg">
<g clip-path="url(#clip0_9_600)">
<path d="M41.8809 15.8009C33.1509 15.2061 30.7326 10.4439 30.6152 10.2248C30.263 9.48913 29.5078 9.01174 28.6743 9C27.8409 9 27.0778 9.48913 26.7217 10.2248C26.6278 10.4243 24.2056 15.2061 15.4561 15.8009C14.8261 15.84 14.3369 16.3643 14.3369 16.9943V21.6587C14.3369 21.6587 14.3761 21.6509 14.3956 21.6509C14.7596 21.6235 15.143 21.6117 15.5343 21.6117C15.9256 21.6117 16.3091 21.6196 16.6809 21.6509C16.7004 21.6509 16.7082 21.6509 16.7278 21.6587V18.0822C24.7143 17.1939 27.8761 12.9287 28.6704 11.6296C29.453 12.9287 32.6187 17.1939 40.6052 18.0822V26.3817C40.6052 34.4622 31.1474 40.907 28.6704 42.4565C27.7704 41.9009 25.9469 40.6957 23.9943 38.9935C23.9669 39.0326 23.9278 39.0717 23.9004 39.107C23.6422 39.4044 23.3956 39.6704 23.1374 39.9287C22.8791 40.187 22.613 40.4335 22.3039 40.7035C25.1996 43.247 27.8409 44.7496 28.0796 44.8904C28.2596 44.9961 28.463 45.043 28.6743 45.043C28.8856 45.043 29.0774 44.9961 29.2574 44.8904C29.8209 44.5735 43 37.0291 43 26.3778V16.9865C43 16.3565 42.5109 15.8283 41.8809 15.793V15.8009Z" fill="#000000"/>
<path d="M24.4796 35.9766C24.4522 35.9844 24.4209 36.0039 24.3935 36.0157C24.4013 36.0431 24.4209 36.0822 24.4326 36.1135C24.4991 36.2857 24.5461 36.4579 24.5852 36.6379C25.9157 37.89 27.2148 38.8839 28.1226 39.5257L28.6783 39.917L29.2339 39.5257C32.0083 37.5574 38.4609 32.3335 38.4609 26.3857V19.9526L37.7135 19.7883C34.3678 19.0526 31.5348 17.6674 29.3161 15.6757L28.6744 15.1005L28.0326 15.6757C25.8139 17.6635 22.9926 19.0487 19.6352 19.7883L18.88 19.9526V22.907C18.9935 23.0713 19.0913 23.2396 19.1657 23.4235C19.1735 23.4431 19.1852 23.4705 19.193 23.5018C19.2322 23.4939 19.2596 23.4822 19.287 23.4626C19.6313 23.3296 19.9952 23.2631 20.3591 23.2631C21.0557 23.2631 21.7365 23.5096 22.2922 23.9792C22.5778 24.2257 22.8557 24.4879 23.1257 24.7539C23.4035 25.0318 23.6617 25.3174 23.9004 25.5952C24.6165 26.4248 24.82 27.5752 24.417 28.6083C24.4091 28.6357 24.3974 28.667 24.3896 28.6866C24.417 28.7061 24.4483 28.7139 24.4757 28.7257C25.4813 29.1639 26.1583 30.1226 26.2365 31.2105C26.2639 31.5822 26.2757 31.9657 26.2757 32.3492C26.2757 32.7326 26.2678 33.1239 26.2365 33.4957C26.1504 34.5952 25.4813 35.55 24.4757 35.9805L24.4796 35.9766Z" fill="#000000"/>
<path d="M22.3783 36.9118C22.2765 36.6535 22.0456 36.4735 21.7678 36.4422L20.8209 36.3366C20.6565 36.317 20.5039 36.2466 20.3826 36.1331L20.1087 35.8787C19.8465 35.6361 19.7839 35.2409 19.9639 34.9357C20.2026 34.5287 20.3826 34.0944 20.5 33.6405C20.5861 33.304 20.8874 33.0613 21.2669 33.0848L21.6465 33.1005C21.8109 33.1083 21.9713 33.167 22.1004 33.2727L22.8322 33.8635C23.0513 34.0396 23.3409 34.0787 23.5913 33.9653C23.8456 33.8557 24.0178 33.6131 24.0374 33.3313C24.0609 33.0105 24.0726 32.6818 24.0726 32.3453C24.0726 32.0087 24.0609 31.684 24.0374 31.3709C24.0178 31.0931 23.8456 30.8505 23.5913 30.737C23.3409 30.6274 23.0474 30.6627 22.8322 30.8387L22.0887 31.4335C21.9596 31.5353 21.7991 31.5979 21.6387 31.6018L21.263 31.6174C20.9187 31.6566 20.5822 31.3983 20.4961 31.0618C20.3787 30.6079 20.1987 30.1735 19.96 29.7666C19.78 29.4613 19.8426 29.0661 20.1048 28.8235L20.3826 28.5653C20.5078 28.4518 20.6604 28.3813 20.8248 28.3657L21.76 28.264C22.0339 28.2327 22.2687 28.0566 22.3704 27.7983C22.4722 27.54 22.4213 27.2466 22.2374 27.0353C22.03 26.7927 21.803 26.55 21.5643 26.3113C21.3256 26.0727 21.0869 25.8496 20.8443 25.6422C20.633 25.4622 20.3474 25.4113 20.0891 25.5131C19.8309 25.6148 19.6509 25.8496 19.6196 26.1235L19.5139 27.0705C19.4943 27.2348 19.4239 27.3913 19.3143 27.5087L19.06 27.7827C18.8174 28.0448 18.4222 28.1074 18.1169 27.9274C17.7139 27.6887 17.2756 27.5087 16.8217 27.3913C16.4852 27.3053 16.2504 26.9805 16.2661 26.6244L16.2817 26.2448C16.2896 26.0805 16.3483 25.9161 16.45 25.7909L17.0409 25.0553C17.213 24.84 17.2522 24.5466 17.1426 24.2961C17.033 24.0418 16.7904 23.8696 16.5126 23.8461C15.8787 23.7992 15.1822 23.7992 14.5522 23.8461C14.2743 23.8657 14.0317 24.034 13.9183 24.2922C13.8087 24.5427 13.8439 24.8361 14.02 25.0513L14.6148 25.7987C14.7165 25.9279 14.7752 26.0844 14.783 26.2527L14.7987 26.6283C14.8143 26.9883 14.5796 27.3092 14.243 27.3953C13.7891 27.5127 13.3548 27.6927 12.9478 27.9313C12.6426 28.1113 12.2474 28.0487 12.0048 27.7866L11.7465 27.5087C11.633 27.3874 11.5626 27.2309 11.5469 27.0666L11.4452 26.1353C11.4139 25.8613 11.2378 25.6266 10.9796 25.5248C10.7174 25.4192 10.4278 25.474 10.2165 25.654C9.9739 25.8613 9.73129 26.0883 9.4926 26.327C9.25782 26.5657 9.03477 26.8005 8.82738 27.0392C8.64347 27.2505 8.59651 27.544 8.69434 27.8022C8.79608 28.0605 9.02695 28.2366 9.30086 28.2679L10.2478 28.3735C10.4122 28.3931 10.5648 28.4635 10.6861 28.5731L10.96 28.8274C11.2222 29.07 11.2848 29.4653 11.1048 29.7705C10.8661 30.1774 10.6861 30.6118 10.5687 31.0657C10.4826 31.4022 10.1852 31.6487 9.80173 31.6213L9.42216 31.6057C9.25782 31.6018 9.09738 31.5431 8.96825 31.4374L8.2326 30.8466C8.01738 30.6744 7.72782 30.6353 7.47347 30.7448C7.21521 30.8544 7.04695 31.097 7.02347 31.3787C6.99999 31.6996 6.98825 32.0283 6.98825 32.3648C6.98825 32.7013 6.99999 33.03 7.02347 33.3509C7.04303 33.6248 7.21129 33.8635 7.46173 33.9731C7.71608 34.0827 8.00956 34.0435 8.22869 33.8713L8.97216 33.2766C9.10129 33.1748 9.25782 33.1161 9.42608 33.1083L9.80173 33.0927C10.1656 33.0809 10.4826 33.3118 10.5687 33.6483C10.6861 34.1022 10.8661 34.5366 11.1048 34.9435C11.2848 35.2487 11.2222 35.644 10.96 35.8866L10.6822 36.1448C10.5609 36.2583 10.4043 36.3287 10.24 36.3444L9.30477 36.4461C9.03086 36.4735 8.79608 36.6535 8.69434 36.9118C8.5926 37.17 8.64347 37.4635 8.82347 37.6748C9.03477 37.9174 9.25782 38.16 9.49651 38.3987C9.73129 38.6335 9.9739 38.8566 10.2087 39.064C10.42 39.2479 10.7096 39.2948 10.9717 39.197C11.23 39.0953 11.4061 38.8644 11.4374 38.5905L11.543 37.6435C11.5626 37.4792 11.633 37.3266 11.7426 37.2053L11.9969 36.9274C12.2396 36.6653 12.6348 36.6027 12.94 36.7827C13.343 37.0174 13.7774 37.1974 14.2352 37.3187C14.5717 37.4048 14.8065 37.7296 14.7909 38.0857L14.7752 38.4653C14.7674 38.6335 14.7087 38.79 14.6069 38.9192L14.0161 39.6548C13.8439 39.87 13.8048 40.1596 13.9143 40.414C14.0239 40.6683 14.2665 40.8444 14.5483 40.864C14.8652 40.8874 15.1978 40.9031 15.5343 40.9031C15.8709 40.9031 16.1956 40.8914 16.5087 40.8679C16.7865 40.8483 17.0291 40.68 17.1426 40.4218C17.2522 40.1714 17.2169 39.8779 17.0409 39.6627L16.4461 38.9153C16.3443 38.79 16.2856 38.6257 16.2778 38.4613L16.2622 38.0857C16.2465 37.7257 16.4813 37.4048 16.8217 37.3187C17.2756 37.2014 17.71 37.0213 18.1169 36.7827C18.4222 36.6066 18.8174 36.6692 19.06 36.9274L19.3183 37.2092C19.4317 37.3305 19.5022 37.487 19.5178 37.6513L19.6196 38.5866C19.6509 38.8605 19.8269 39.0953 20.0852 39.197C20.3474 39.2987 20.6409 39.2518 20.8522 39.064C21.0948 38.8527 21.3374 38.6296 21.5761 38.3909C21.8148 38.1522 22.0378 37.9135 22.2452 37.6709C22.4252 37.4635 22.4761 37.174 22.3743 36.9157L22.3783 36.9118Z" fill="#000000"/>
</g>
<defs>
<clipPath id="clip0_9_600">
<rect width="36" height="36.0509" fill="white" transform="translate(7 9)"/>
</clipPath>
</defs>
</svg>
