<svg width="50" height="50" viewBox="0 0 50 50" fill="none" xmlns="http://www.w3.org/2000/svg">
<g clip-path="url(#clip0_30_12)">
<path d="M33.7748 9.90011L33.1907 12.1905C37.326 14.9558 40.0493 19.667 40.0493 25.0001C40.0493 33.3759 33.3294 40.2177 24.9914 40.3984L23.2179 42.5922C23.6886 42.63 24.1635 42.651 24.6468 42.651C34.38 42.651 42.2977 34.7333 42.2977 25.0001C42.2977 18.6037 38.881 12.9932 33.7706 9.8959L33.7748 9.90011ZM9.2484 25.0001C9.2484 16.6243 15.9726 9.78243 24.3063 9.60172L26.0756 7.40796C25.605 7.37013 25.1301 7.34912 24.651 7.34912C14.9177 7.34912 7 15.2668 7 25.0001C7 31.3965 10.4209 37.0069 15.5271 40.1043L16.1071 37.8096C11.9717 35.0443 9.2484 30.3374 9.2484 25.0001Z" fill="#000000"/>
<path d="M35.6954 22.3062C35.5063 21.9069 35.1238 21.6674 34.6826 21.6674H28.3114L31.9257 7.40372C32.0139 7.0507 31.9509 6.7229 31.7407 6.44973C31.5222 6.16395 31.1734 5.99585 30.8162 5.99585C30.4842 5.99585 30.19 6.14294 29.963 6.42031L13.7494 26.5088C13.472 26.8534 13.4174 27.2989 13.6107 27.6981C13.7998 28.0932 14.1864 28.3369 14.6235 28.3369H20.9947L17.3804 42.6006C17.2922 42.9536 17.3552 43.2856 17.5653 43.5546C17.7839 43.8362 18.1285 44.0085 18.4899 44.0085C18.8219 44.0085 19.1161 43.8614 19.343 43.584L35.5567 23.4997C35.8299 23.1593 35.8845 22.7054 35.6954 22.3104V22.3062Z" fill="#000000"/>
</g>
<defs>
<clipPath id="clip0_30_12">
<rect width="35.3019" height="38" fill="white" transform="translate(7 6)"/>
</clipPath>
</defs>
</svg>
