<svg width="55" height="55" viewBox="0 0 55 55" fill="none" xmlns="http://www.w3.org/2000/svg">
<g clip-path="url(#clip0_9_600)">
<path d="M39.14 26.5376H41.0035C40.9012 24.8576 40.46 23.2694 39.7435 21.8364L38.1271 22.7717C38 22.8353 37.8694 22.8741 37.7318 22.8741C37.4671 22.8741 37.1988 22.7364 37.0612 22.4788C36.8424 22.1117 36.9694 21.6353 37.3471 21.4129L38.9635 20.4776C38.0529 19.1188 36.8882 17.9435 35.5188 17.0329L34.5835 18.66C34.4459 18.907 34.1812 19.0447 33.9129 19.0447C33.7753 19.0447 33.6376 19.0164 33.5176 18.9423C33.14 18.7235 33.0129 18.2435 33.2318 17.8764L34.16 16.2494C32.7271 15.5435 31.1388 15.1023 29.4588 14.9929V16.867C29.4588 17.2976 29.1094 17.647 28.6788 17.647C28.2482 17.647 27.8988 17.2976 27.8988 16.867V14.9929C26.2188 15.1023 24.6306 15.5435 23.1976 16.26L24.1329 17.8764C24.3447 18.2435 24.2141 18.72 23.8471 18.9423C23.72 19.0164 23.5894 19.0447 23.4518 19.0447C23.1871 19.0447 22.9188 18.907 22.7812 18.66L21.8353 17.0329C20.4765 17.9435 19.3012 19.1188 18.3906 20.4776L20.0176 21.4129C20.3953 21.6317 20.5224 22.1117 20.3035 22.4788C20.1553 22.7364 19.9012 22.8741 19.6224 22.8741C19.4953 22.8741 19.3576 22.8388 19.2376 22.7717L17.6212 21.8364C16.9047 23.2694 16.4635 24.8576 16.3612 26.5376H18.2247C18.6553 26.5376 19.0047 26.887 19.0047 27.3176C19.0047 27.7482 18.6553 28.0976 18.2247 28.0976H16.3612C16.4071 28.8388 16.52 29.5588 16.6894 30.2612C17.0424 30.5082 17.3776 30.7941 17.6953 31.1117L18.2882 31.7153L18.8812 31.1117C20.1518 29.8165 21.7788 29.1 23.4694 29.0894H23.4941C25.4988 29.0894 27.4012 29.9612 28.7071 31.4788C30.0094 32.9929 30.5882 35.0012 30.2882 36.9953C30.1612 37.8459 29.8682 38.6435 29.4518 39.36V39.6423C31.1318 39.5329 32.72 39.0917 34.1529 38.3753L33.2247 36.7588C33.0059 36.3917 33.1329 35.9153 33.5106 35.6929C33.8882 35.4741 34.3647 35.6012 34.5765 35.9788L35.5118 37.6059C36.8812 36.6953 38.0459 35.52 38.9565 34.1612L37.34 33.2259C36.9624 33.007 36.8353 32.527 37.0541 32.16C37.2659 31.7823 37.7424 31.6553 38.12 31.8741L39.7365 32.8023C40.4529 31.3694 40.8941 29.7812 40.9965 28.1012H39.1329C38.7024 28.1012 38.3529 27.7517 38.3529 27.3212C38.3529 26.8906 38.7024 26.5412 39.1329 26.5412L39.14 26.5376ZM34.1741 30.487C34.0259 30.7341 33.7682 30.8823 33.4929 30.8823C33.3659 30.8823 33.2282 30.847 33.1082 30.7729L29.7835 28.8529C29.4624 29.0823 29.1024 29.2376 28.6824 29.2376C27.6271 29.2376 26.7624 28.3835 26.7624 27.3176C26.7624 26.5376 27.2318 25.867 27.9024 25.5741V20.3753C27.9024 19.9447 28.2518 19.5953 28.6824 19.5953C29.1129 19.5953 29.4624 19.9447 29.4624 20.3753V25.5741C30.1329 25.867 30.6094 26.5376 30.6094 27.3176C30.6094 27.3812 30.5741 27.4376 30.5635 27.5012L33.8882 29.4212C34.2659 29.6329 34.3929 30.1094 34.1741 30.487Z" fill="#000000"/>
<path d="M27.3341 32.6577C26.3706 31.5353 24.9659 30.8929 23.4871 30.8929H23.4624C22.2659 30.9 21.0941 31.4259 20.1588 32.3753L18.2777 34.2882L16.3965 32.3753C15.4647 31.4259 14.2894 30.9 13.0929 30.8929H13.0682C11.5894 30.8929 10.1847 31.5353 9.22118 32.6577C8.26118 33.7729 7.83765 35.2588 8.05647 36.7306C8.42 39.1518 10.5588 40.9906 13.1282 41.0118C14.3176 40.9976 15.4824 40.4718 16.4071 39.5294L18.2741 37.6271L20.1447 39.5294C21.0694 40.4718 22.2341 40.9976 23.5259 41.0118C25.9929 40.9906 28.1318 39.1518 28.4953 36.7306C28.7176 35.2588 28.2941 33.7765 27.3306 32.6612L27.3341 32.6577ZM14.7412 37.8918C14.2612 38.3824 13.6647 38.6682 13.0471 38.6718C11.7376 38.6612 10.5624 37.6553 10.3718 36.3847C10.2518 35.5765 10.4706 34.7965 10.9965 34.1859C11.5153 33.5824 12.2741 33.2329 13.0718 33.2329H13.0894C13.6471 33.2365 14.2471 33.5224 14.7306 34.0165L16.64 35.9576L14.7412 37.8882V37.8918ZM26.1871 36.3812C25.9965 37.6553 24.8212 38.6612 23.4553 38.6718C22.8976 38.6647 22.2977 38.3788 21.8177 37.8918L19.9188 35.9612L21.8282 34.02C22.3153 33.5259 22.9153 33.24 23.4694 33.2365H23.4906C24.2882 33.2365 25.0471 33.5824 25.5659 34.1859C26.0882 34.7929 26.3106 35.5729 26.1906 36.3812H26.1871Z" fill="#000000"/>
<path d="M28.6894 12C20.24 12 13.3718 18.8612 13.3718 27.3106C13.3718 27.9212 13.4106 28.5212 13.4812 29.1141C14.0071 29.1494 14.5259 29.2482 15.0271 29.4176C14.9212 28.7294 14.8612 28.0271 14.8612 27.3141C14.8612 19.6906 21.0588 13.4824 28.6824 13.4824C36.3059 13.4824 42.5141 19.6906 42.5141 27.3141C42.5141 34.9376 36.3165 41.1459 28.6824 41.1459C28.4565 41.1459 28.2306 41.1388 28.0047 41.1282C27.3941 41.6576 26.6882 42.0812 25.9259 42.3706C26.8224 42.5365 27.7471 42.6247 28.6929 42.6247C37.1318 42.6247 44.0035 35.7565 44.0035 27.3141C44.0035 18.8718 37.1318 12 28.6894 12Z" fill="#000000"/>
</g>
<defs>
<clipPath id="clip0_9_600">
<rect width="36" height="30.6212" fill="white" transform="translate(8 12)"/>
</clipPath>
</defs>
</svg>
