<svg width="55" height="55" viewBox="0 0 55 55" fill="none" xmlns="http://www.w3.org/2000/svg">
<g clip-path="url(#clip0_9_600)">
<path fill-rule="evenodd" clip-rule="evenodd" d="M30.7897 36.5348C29.4663 36.5348 28.3863 35.4582 28.3863 34.1314V29.6331C28.3863 28.3062 29.4629 27.2297 30.7897 27.2297H33.7966V24.2228C33.7966 22.8994 34.8732 21.8194 36.2 21.8194H39.7829C39.6492 21.6617 39.5257 21.4971 39.3783 21.3462C34.8457 16.6971 27.4572 19.4742 26.0343 25.656C27.248 25.9302 28.5303 26.4685 29.3772 27.192C24.8994 25.3645 21.2652 26.904 19.1463 31.2617C18.9852 30.216 18.7246 29.208 18.3954 28.2205C18.2 27.6377 17.936 26.9725 17.8949 26.1908C17.7886 23.9657 17.8092 21.72 18.176 19.5188C18.224 19.2171 18.272 19.0114 18.5257 18.9737C18.9852 18.9051 20.6034 18.3428 20.96 18.1028C21.776 18.6308 22.064 18.5211 22.9623 17.952C23.8812 17.7771 24.2343 17.6297 24.8857 16.8788C25.4892 16.6114 25.9212 16.2651 26.0994 15.8091C26.6034 15.3222 26.8057 14.6228 26.3086 14.2525L23.4594 12.1405C23.2126 11.9588 22.8663 11.9691 22.5166 12.0857L21.8309 12.3188C19.9623 12.9531 18.248 13.9851 16.5646 15.0548C15.1452 15.9531 14.6343 17.64 13.88 20.4411C12.0594 27.2365 10.088 29.8628 11.456 39.48C11.5726 40.3028 12.1897 40.8891 13.0434 41.2902C16.1703 42.7714 20.5486 41.8525 23.7714 40.9782C27.7143 39.9085 29.9189 37.9337 31.4549 36.5348H30.7932H30.7897Z" fill="#000000"/>
<path d="M41.5897 39.5417V35.0537H46.0777C46.5886 35.0537 47 34.6423 47 34.1314V29.6331C47 29.1257 46.5851 28.7108 46.0777 28.7108H41.5897V24.2228C41.5897 23.7154 41.1749 23.3005 40.6674 23.3005H36.1692C35.6617 23.3005 35.2469 23.712 35.2469 24.2228V28.7108H30.7589C30.2514 28.7108 29.8366 29.1257 29.8366 29.6331V34.1314C29.8366 34.6388 30.2514 35.0537 30.7589 35.0537H35.2469V39.5417C35.2469 40.0491 35.6617 40.464 36.1692 40.464H40.6674C41.1749 40.464 41.5897 40.0525 41.5897 39.5417Z" fill="#000000"/>
</g>
<defs>
<clipPath id="clip0_9_600">
<rect width="36" height="30.072" fill="white" transform="translate(11 12)"/>
</clipPath>
</defs>
</svg>
