<svg width="55" height="55" viewBox="0 0 55 55" fill="none" xmlns="http://www.w3.org/2000/svg">
<g clip-path="url(#clip0_9_600)">
<path d="M39.119 28.6342C38.2815 28.9926 37.3777 29.1718 36.4739 29.1718C35.5701 29.1718 34.7208 29.0043 33.9027 28.6654L33.8092 28.6264V30.399C33.8092 30.8781 33.1781 32.3507 31.6666 32.5416H28.7098V35.4984C28.7098 35.9776 28.1098 37.4385 26.5671 37.641H21.6898C21.2106 37.641 19.5978 36.8775 19.5471 35.4984V32.5416H15.6982C12.5622 34.992 11.3467 41.7354 11.0078 44.1351C10.9416 44.5909 11.2961 44.9961 11.7597 44.9961H15.032C15.4216 44.9961 15.7488 44.7039 15.7878 44.3143C16.0215 41.8328 17.1357 33.7726 21.3547 40.3135C26.2867 47.9646 38.2308 42.834 41.6551 34.731C42.4693 32.8065 43.0693 30.7223 43.4082 28.6459L42.1382 28.3576C41.1253 28.1278 40.0813 28.2213 39.1268 28.6303L39.119 28.6342Z" fill="#000000"/>
<path d="M27.1281 35.2452V31.0145H31.3588C31.838 31.0145 32.2276 30.6249 32.2276 30.1458V25.9073C32.2276 25.4281 31.838 25.0385 31.3588 25.0385H27.1281V20.8078C27.1281 20.3287 26.7385 19.9391 26.2594 19.9391H22.017C21.5378 19.9391 21.1482 20.3287 21.1482 20.8078V25.0385H16.9175C16.4384 25.0385 16.0488 25.4281 16.0488 25.9073V30.1458C16.0488 30.6249 16.4384 31.0145 16.9175 31.0145H21.1482V35.2452C21.1482 35.7244 21.5378 36.114 22.017 36.114H26.2594C26.7385 36.114 27.1281 35.7244 27.1281 35.2452Z" fill="#000000"/>
<path d="M36.4271 14.8435C33.7936 14.5903 32.0094 15.3461 30.7901 16.581C29.5395 17.8471 27.4242 17.5744 26.6879 15.9538C26.1074 14.6721 25.6906 12.7126 25.6283 9.75187C25.6205 9.33503 25.2855 9 24.8686 9H21.4911C21.0625 9 20.7197 9.35061 20.7314 9.77914C20.782 11.3725 21.0586 15.124 22.4689 18.2717H26.5749C27.0541 18.2717 28.4682 18.8444 28.7175 20.4143V23.3712H31.6744C33.1976 23.5582 33.817 25.0346 33.817 25.5138V26.6825C33.9728 26.7331 34.1325 26.776 34.2884 26.8383L34.6078 26.9708C35.8194 27.4733 37.2062 27.4655 38.4139 26.9513C39.7267 26.3903 41.1526 26.2618 42.5433 26.5773L43.638 26.8266C44.1522 20.8429 42.2473 15.4045 36.4232 14.8474L36.4271 14.8435Z" fill="#000000"/>
</g>
<defs>
<clipPath id="clip0_9_600">
<rect width="32.7237" height="36" fill="white" transform="translate(11 9)"/>
</clipPath>
</defs>
</svg>
