<svg width="55" height="55" viewBox="0 0 55 55" fill="none" xmlns="http://www.w3.org/2000/svg">
<g clip-path="url(#clip0_9_600)">
<path d="M45.2114 42.7042C44.3414 41.4828 43.8357 40.0428 43.7457 38.5428C43.5786 35.7271 43.3729 30.91 43.6386 27.1857C43.7457 25.7371 44.2557 24.3485 45.0957 23.1657L45.6357 22.4071C46.0514 21.82 46.1157 21.0185 45.7043 20.4314C45.16 19.6514 44.1143 19.4928 43.3729 20.02L42.6614 20.5257C41.4872 21.3614 40.1029 21.8671 38.6629 21.9785C35.9543 21.7385 33.2414 21.6185 30.5243 21.5628C30.9014 22.1628 31.1286 22.8657 31.1286 23.6243C31.1286 25.7671 29.3886 27.5071 27.2457 27.5071H20.5643C19.0643 27.5071 17.6972 26.6414 17.0543 25.2871C16.5443 24.2114 16.57 22.9857 17.0757 21.9442C15.73 21.7942 14.4357 21.3142 13.33 20.5257L12.6186 20.02C11.8772 19.4928 10.8314 19.6514 10.2872 20.4314C9.87573 21.0228 9.93573 21.8243 10.3557 22.4071L10.8957 23.1657C11.74 24.3485 12.25 25.7371 12.3529 27.1857C12.6229 30.91 12.4172 35.7271 12.25 38.5428C12.16 40.0385 11.6543 41.4828 10.7843 42.7042L10.3043 43.3771C9.77715 44.1185 9.93573 45.1642 10.7157 45.7085C11.3072 46.12 12.1043 46.0557 12.6914 45.64L13.33 45.1857C14.5043 44.35 15.8886 43.8442 17.3286 43.7328C24.4257 44.3628 31.5657 44.3628 38.6629 43.7328C40.1029 43.8485 41.4829 44.35 42.6572 45.1857L43.2957 45.64C43.8829 46.0557 44.68 46.12 45.2714 45.7085C46.0514 45.1642 46.21 44.1185 45.6829 43.3771L45.2029 42.7042H45.2114Z" fill="#000000"/>
<path d="M20.5729 16.9686H24.0914L19.4157 22.6815C19.0514 23.1315 18.9743 23.7486 19.2229 24.2715C19.4714 24.7943 19.9986 25.1286 20.5771 25.1286H27.2586C28.0857 25.1286 28.7543 24.46 28.7543 23.6329C28.7543 22.8057 28.0857 22.1372 27.2586 22.1372H23.74L28.4157 16.4243C28.78 15.9743 28.8571 15.3572 28.6086 14.8343C28.36 14.3115 27.8329 13.9772 27.2543 13.9772H20.5729C19.7457 13.9772 19.0771 14.6457 19.0771 15.4729C19.0771 16.3 19.7457 16.9686 20.5729 16.9686Z" fill="#000000"/>
<path d="M32.9329 9.9957H36.4514L31.7714 15.7086C31.4071 16.1586 31.33 16.7757 31.5786 17.2986C31.8271 17.8214 32.3543 18.1557 32.9329 18.1557H39.6143C40.4414 18.1557 41.11 17.4871 41.11 16.66C41.11 15.8328 40.4414 15.1643 39.6143 15.1643H36.0957L40.7757 9.45142C41.14 9.00142 41.2171 8.38427 40.9686 7.86142C40.72 7.33856 40.1929 7.00427 39.6143 7.00427H32.9329C32.1057 7.00427 31.4371 7.67284 31.4371 8.49999C31.4371 9.32713 32.1057 9.9957 32.9329 9.9957Z" fill="#000000"/>
</g>
<defs>
<clipPath id="clip0_9_600">
<rect width="36" height="38.9871" fill="white" transform="translate(10 7)"/>
</clipPath>
</defs>
</svg>
