<svg width="55" height="55" viewBox="0 0 55 55" fill="none" xmlns="http://www.w3.org/2000/svg">
<g clip-path="url(#clip0_9_600)">
<path d="M30.3494 23.8729C30.9953 23.8729 31.6165 23.7247 32.1953 23.4282C33.1694 22.9412 33.893 22.0871 34.2424 21.0247C34.5847 19.98 34.5035 18.84 34.02 17.8941L31.32 12.5965C31.1365 12.2294 30.7624 12 30.3459 12C29.9294 12 29.5553 12.2294 29.3682 12.6C29.3682 12.6 27.1659 16.8918 26.6612 17.8976C26.0647 19.0976 26.0647 20.4106 26.6612 21.6C27.3671 23.0012 28.7788 23.8729 30.3459 23.8729H30.3494Z" fill="#000000"/>
<path d="M44.9929 27.9035C45.0353 27.3318 44.8376 26.7882 44.4424 26.3753C43.9235 25.8282 43.1047 25.62 42.3847 25.8459L36.1341 27.8294C36.1447 27.9847 36.1412 28.1471 36.1341 28.3094C36.0459 30.0988 34.7329 31.5918 32.9859 31.9729L32.7318 32.0294C30.3776 32.5447 27.9847 32.8518 25.5776 32.9506L23.6541 33.0318C23.3506 33.0424 23.0576 32.9365 22.8318 32.7318C22.6094 32.52 22.4753 32.2377 22.4612 31.9341C22.4506 31.6271 22.5565 31.3341 22.7612 31.1118C22.9694 30.8859 23.2518 30.7553 23.5588 30.7447L25.5847 30.66C27.7765 30.5682 29.9576 30.2929 32.1035 29.8271L32.5024 29.7388C33.2647 29.5729 33.8188 28.9165 33.8541 28.14C33.8753 27.6812 33.7129 27.2435 33.3988 26.9047C33.0776 26.5694 32.6541 26.3753 32.1953 26.3577L22.0976 26.0506C20.9929 26.0153 19.8918 26.3576 18.9953 27.0106L9.49765 34.4541C8.88 34.9377 8.83059 35.8518 9.39177 36.3953L14.8412 41.7141C15.3071 42.1694 16.0376 42.2047 16.5494 41.7988L18.8506 39.9777C19.2176 39.6847 19.6835 39.5506 20.1494 39.5929L27.7835 40.2988C29.2447 40.4329 30.7024 40.0024 31.8565 39.0953L44.2412 29.3471C44.6894 28.9906 44.9612 28.4824 45 27.9106L44.9929 27.9035Z" fill="#000000"/>
</g>
<defs>
<clipPath id="clip0_9_600">
<rect width="36" height="30.0776" fill="white" transform="translate(9 12)"/>
</clipPath>
</defs>
</svg>
