<svg width="55" height="55" viewBox="0 0 55 55" fill="none" xmlns="http://www.w3.org/2000/svg">
<g clip-path="url(#clip0_9_600)">
<path d="M43.6191 23.3164C43.5618 23.3246 37.7936 24.0568 35.11 20.8537L31.9845 17.1268C30.0168 14.7787 24.5841 12.7373 23.5164 12.3528C22.9477 12.1482 22.3136 12.2014 21.7859 12.5C21.2582 12.7987 20.8859 13.31 20.7673 13.9032L19.5441 20.0028C19.3191 21.1278 20.0473 22.2282 21.1764 22.4532C21.5241 22.5228 21.8677 22.4941 22.1868 22.3959L20.6445 23.8278C19.5973 24.8014 19 26.1759 19.0082 27.6078L19.09 43.7873C19.0982 45.0678 20.1373 46.1028 21.4177 46.1028H21.43C22.7145 46.0946 23.7536 45.0473 23.7454 43.7628L23.6882 32.03L28.36 36.8573L28.2291 43.7259C28.2045 45.0105 29.2273 46.0741 30.5118 46.0987C30.5282 46.0987 30.5404 46.0987 30.5568 46.0987C31.8209 46.0987 32.86 45.0841 32.8845 43.8159L33.0359 35.9778C33.0482 35.36 32.8109 34.7587 32.3814 34.3128L27.6973 29.4732L33.8786 25.2637C36.64 27.1782 40.0068 27.5587 42.1382 27.5587C43.3204 27.5587 44.1182 27.4482 44.2204 27.4359C45.3577 27.2723 46.1473 26.2168 45.9836 25.0796C45.82 23.9423 44.7686 23.165 43.6273 23.3164H43.6191ZM23.5245 21.1482C23.5654 21.0418 23.6023 20.9314 23.6268 20.8168L24.3591 17.18C25.1323 17.5237 25.9136 17.9 26.6132 18.2805L23.5245 21.1482Z" fill="#000000"/>
<path d="M41.5327 18.9595C43.66 17.1758 43.9382 14.0013 42.1545 11.874C40.3709 9.74675 37.1964 9.46857 35.0691 11.2522C32.9418 13.0358 32.6636 16.2104 34.4473 18.3377C36.2309 20.4649 39.4055 20.7431 41.5327 18.9595Z" fill="#000000"/>
<path d="M14.185 8.27406C14.0295 8.04088 13.735 7.93861 13.4691 8.0327L10.4255 9.05542C10.2291 9.12088 10.0777 9.28042 10.0245 9.48088C9.97137 9.68133 10.0164 9.89406 10.1514 10.0495L13.1295 13.5432L10.6914 14.3613C10.4786 14.435 10.3232 14.6068 10.2782 14.8277C10.2332 15.0486 10.3068 15.2695 10.4745 15.4168L16.9382 21.1972C17.0732 21.3159 17.2409 21.3691 17.4045 21.3568C17.5232 21.3445 17.6418 21.2995 17.7441 21.2136C17.9855 21.0132 18.0386 20.6859 17.875 20.42L15.4327 16.4109L18.0836 15.5191C18.2677 15.4577 18.4109 15.3145 18.4723 15.1304C18.5336 14.9463 18.5091 14.7459 18.4027 14.5822L14.185 8.27406Z" fill="#000000"/>
</g>
<defs>
<clipPath id="clip0_9_600">
<rect width="36" height="38.0986" fill="white" transform="translate(10 8)"/>
</clipPath>
</defs>
</svg>
