<svg class="fera-overallRatingBanner-rightRibbon" width="39" height="86" viewBox="0 0 39 86" fill="none" xmlns="http://www.w3.org/2000/svg"><!-- Right Ribbon SVG Path Here -->
                <path d="M0.566396 0.898847C13.4621 0.629256 11.8648 7.98269 11.8648 7.98269C11.8648 7.98269 5.98286 12.6566 0.566396 0.898847Z" fill="#171717"/>
                <path d="M14.6589 0C24.7069 8.11025 18.775 12.7161 18.775 12.7161C18.775 12.7161 11.279 12.4899 14.6589 0Z" fill="#171717"/>
                <path d="M24.5656 9.5344C33.0554 19.2776 26.4157 22.7787 26.4157 22.7787C26.4157 22.7787 19.0727 21.2513 24.5656 9.5344Z" fill="#171717"/>
                <path d="M32.4207 20.7356C37.0808 32.7963 29.6512 33.8137 29.6512 33.8137C29.6512 33.8137 23.2702 29.8497 32.4207 20.7356Z" fill="#171717"/>
                <path d="M37.0412 31.9377C37.3097 44.8824 29.9842 43.2791 29.9842 43.2791C29.9842 43.2791 25.3365 37.3579 37.0412 31.9377Z" fill="#171717"/>
                <path d="M38.5 42.3288C36.5331 55.117 29.5876 52.2649 29.5876 52.2649C29.5876 52.2649 26.0279 45.6375 38.5 42.3288Z" fill="#171717"/>
                <path d="M35.935 53.4428C31.7775 65.6942 25.4348 61.6755 25.4348 61.6755C25.4348 61.6755 23.0921 54.5246 35.935 53.4428Z" fill="#171717"/>
                <path d="M30.8497 64.1687C24.6351 75.5165 19.088 70.4511 19.088 70.4511C19.088 70.4511 18.007 63.0011 30.8497 64.1687Z" fill="#171717"/>
                <path d="M24.2529 74.8118C14.5466 83.3339 11.0588 76.669 11.0588 76.669C11.0588 76.669 12.5845 69.3108 24.2529 74.8118Z" fill="#171717"/>
                <path d="M15.099 82.7037C4.42917 89.9796 1.78658 82.9406 1.78658 82.9406C1.78658 82.9406 4.18666 75.8173 15.099 82.7037Z" fill="#171717"/>
                <path d="M6.27967 12.405C18.9269 9.89683 18.6299 17.4166 18.6299 17.4166C18.6299 17.4166 13.6423 23.036 6.27967 12.405Z" fill="#171717"/>
                <path d="M15.1816 20.5238C27.9212 22.4983 25.08 29.4701 25.08 29.4701C25.08 29.4701 18.4777 33.0434 15.1816 20.5238Z" fill="#171717"/>
                <path d="M18.6269 30.6047C30.8319 34.778 26.8285 41.1448 26.8285 41.1448C26.8285 41.1448 19.7088 43.5091 18.6269 30.6047Z" fill="#171717"/>
                <path d="M20.0597 41.6935C31.3644 47.9318 26.3182 53.5 26.3182 53.5C26.3182 53.5 18.8924 54.5723 20.0597 41.6935Z" fill="#171717"/>
                <path d="M17.4709 49.7922C27.5189 57.9025 21.5869 62.5084 21.5869 62.5084C21.5869 62.5084 14.0909 62.2821 17.4709 49.7922Z" fill="#171717"/>
                <path d="M14.0564 57.3728C20.7334 68.4382 13.5931 70.739 13.5931 70.739C13.5931 70.739 6.62613 67.9502 14.0564 57.3728Z" fill="#171717"/>
                <path d="M8.46759 67.2795C8.73616 80.2243 1.41059 78.6209 1.41059 78.6209C1.41059 78.6209 -3.23706 72.6997 8.46759 67.2795Z" fill="#171717"/>
            </svg>