<svg width="32" height="33" viewBox="0 0 32 33" fill="none" xmlns="http://www.w3.org/2000/svg">
<path d="M28.4563 10.3063C28.1568 9.1684 27.277 8.2742 26.1577 7.96961C24.1309 7.41699 16 7.41699 16 7.41699C16 7.41699 7.86911 7.41699 5.84227 7.96961C4.72292 8.2742 3.84327 9.1684 3.54363 10.3063C3 12.3666 3 16.6679 3 16.6679C3 16.6679 3 20.9692 3.54363 23.0295C3.84327 24.1674 4.72292 25.0616 5.84227 25.3661C7.86911 25.9188 16 25.9188 16 25.9188C16 25.9188 24.1309 25.9188 26.1577 25.3661C27.277 25.0616 28.1568 24.1674 28.4563 23.0295C29 20.9692 29 16.6679 29 16.6679C29 16.6679 28.9978 12.3666 28.4563 10.3063Z" fill="#FF0000"/>
<path d="M13.3975 20.6323L20.1522 16.6683L13.3975 12.7042V20.6323Z" fill="white"/>
</svg>
