<svg width="32" height="32" viewBox="0 0 32 32" fill="none" xmlns="http://www.w3.org/2000/svg">
<path d="M15.9999 2C8.26802 2 2 8.26805 2 16C2 21.9311 5.69014 27.0014 10.898 29.0413C10.7757 27.9336 10.665 26.2301 10.9466 25.0208C11.201 23.9282 12.5882 18.0619 12.5882 18.0619C12.5882 18.0619 12.1694 17.2232 12.1694 15.9834C12.1694 14.0367 13.2978 12.5833 14.7027 12.5833C15.8971 12.5833 16.474 13.4801 16.474 14.5554C16.474 15.7566 15.7093 17.5525 15.3146 19.2168C14.9848 20.6102 16.0134 21.7466 17.3877 21.7466C19.876 21.7466 21.7887 19.1229 21.7887 15.3356C21.7887 11.9836 19.3801 9.63991 15.9408 9.63991C11.9574 9.63991 9.61922 12.6277 9.61922 15.7155C9.61922 16.9188 10.0827 18.209 10.6611 18.9105C10.7756 19.0491 10.7923 19.1705 10.7582 19.312C10.652 19.7542 10.4158 20.7051 10.3694 20.8997C10.3084 21.156 10.1665 21.2104 9.90119 21.0869C8.15269 20.273 7.05948 17.7166 7.05948 15.6633C7.05948 11.247 10.2682 7.19124 16.3098 7.19124C21.1664 7.19124 24.9405 10.652 24.9405 15.277C24.9405 20.1019 21.8983 23.985 17.6758 23.985C16.2571 23.985 14.9235 23.248 14.467 22.3774C14.467 22.3774 13.765 25.0504 13.5948 25.7055C13.2787 26.9215 12.4255 28.4458 11.8548 29.3757C13.1647 29.7813 14.5567 30 15.9999 30C23.732 30 30 23.7319 30 16C30 8.26805 23.732 2 15.9999 2Z" fill="#E60023"/>
</svg>
