<svg width="32" height="33" viewBox="0 0 32 33" fill="none" xmlns="http://www.w3.org/2000/svg">
<path d="M16.0044 3.08398C10.4379 3.08398 8.80989 3.08973 8.49344 3.11598C7.35109 3.21093 6.64025 3.3908 5.86583 3.77637C5.26902 4.07272 4.79834 4.41625 4.33381 4.8978C3.48781 5.77599 2.97509 6.8564 2.78948 8.14067C2.69924 8.76415 2.67299 8.8913 2.66766 12.0759C2.66561 13.1375 2.66766 14.5345 2.66766 16.4085C2.66766 21.9705 2.67381 23.5968 2.70047 23.9127C2.79276 25.0243 2.96709 25.7236 3.33625 26.4886C4.04176 27.9529 5.3892 29.0522 6.97659 29.4624C7.52623 29.6039 8.1333 29.6819 8.91264 29.7188C9.24283 29.7331 12.6084 29.7434 15.9759 29.7434C19.3435 29.7434 22.7111 29.7393 23.0331 29.7229C23.9355 29.6804 24.4595 29.6101 25.0388 29.4604C26.6365 29.0481 27.9593 27.9653 28.6792 26.4804C29.0412 25.7339 29.2247 25.0079 29.3078 23.9543C29.3258 23.7246 29.3334 20.0623 29.3334 16.405C29.3334 12.747 29.3252 9.09147 29.3072 8.86177C29.2231 7.7912 29.0395 7.07134 28.6658 6.31045C28.3592 5.6876 28.0188 5.22245 27.5245 4.74685C26.6424 3.90434 25.5637 3.39162 24.2782 3.20622C23.6553 3.11618 23.5312 3.08952 20.3441 3.08398H16.0044Z" fill="url(#paint0_radial_5509_17575)"/>
<path d="M16.0044 3.08398C10.4379 3.08398 8.80989 3.08973 8.49344 3.11598C7.35109 3.21093 6.64025 3.3908 5.86583 3.77637C5.26902 4.07272 4.79834 4.41625 4.33381 4.8978C3.48781 5.77599 2.97509 6.8564 2.78948 8.14067C2.69924 8.76415 2.67299 8.8913 2.66766 12.0759C2.66561 13.1375 2.66766 14.5345 2.66766 16.4085C2.66766 21.9705 2.67381 23.5968 2.70047 23.9127C2.79276 25.0243 2.96709 25.7236 3.33625 26.4886C4.04176 27.9529 5.3892 29.0522 6.97659 29.4624C7.52623 29.6039 8.1333 29.6819 8.91264 29.7188C9.24283 29.7331 12.6084 29.7434 15.9759 29.7434C19.3435 29.7434 22.7111 29.7393 23.0331 29.7229C23.9355 29.6804 24.4595 29.6101 25.0388 29.4604C26.6365 29.0481 27.9593 27.9653 28.6792 26.4804C29.0412 25.7339 29.2247 25.0079 29.3078 23.9543C29.3258 23.7246 29.3334 20.0623 29.3334 16.405C29.3334 12.747 29.3252 9.09147 29.3072 8.86177C29.2231 7.7912 29.0395 7.07134 28.6658 6.31045C28.3592 5.6876 28.0188 5.22245 27.5245 4.74685C26.6424 3.90434 25.5637 3.39162 24.2782 3.20622C23.6553 3.11618 23.5312 3.08952 20.3441 3.08398H16.0044Z" fill="url(#paint1_radial_5509_17575)"/>
<path d="M15.9983 6.57051C13.3247 6.57051 12.9892 6.5822 11.9391 6.62998C10.8911 6.67798 10.1758 6.84389 9.54984 7.08733C8.90237 7.33877 8.35314 7.67512 7.80596 8.22251C7.25837 8.76968 6.92203 9.31891 6.66977 9.96618C6.42571 10.5923 6.25959 11.3079 6.21242 12.3555C6.16545 13.4055 6.15315 13.7413 6.15315 16.4148C6.15315 19.0884 6.16504 19.4229 6.21262 20.4729C6.26082 21.5209 6.42674 22.2363 6.66997 22.8622C6.92162 23.5097 7.25796 24.0589 7.80535 24.6061C8.35232 25.1537 8.90155 25.4908 9.54861 25.7423C10.175 25.9857 10.8905 26.1516 11.9383 26.1996C12.9884 26.2474 13.3237 26.2591 15.997 26.2591C18.6708 26.2591 19.0053 26.2474 20.0554 26.1996C21.1034 26.1516 21.8195 25.9857 22.4459 25.7423C23.0931 25.4908 23.6416 25.1537 24.1885 24.6061C24.7361 24.0589 25.0725 23.5097 25.3247 22.8624C25.5667 22.2363 25.7328 21.5207 25.7821 20.4731C25.8292 19.4231 25.8415 19.0884 25.8415 16.4148C25.8415 13.7413 25.8292 13.4057 25.7821 12.3557C25.7328 11.3077 25.5667 10.5923 25.3247 9.96638C25.0725 9.31891 24.7361 8.76968 24.1885 8.22251C23.6409 7.67492 23.0933 7.33857 22.4453 7.08733C21.8177 6.84389 21.1019 6.67798 20.0539 6.62998C19.0039 6.5822 18.6696 6.57051 15.9952 6.57051H15.9983ZM15.1152 8.34453C15.3773 8.34412 15.6697 8.34453 15.9983 8.34453C18.6267 8.34453 18.9382 8.35397 19.9762 8.40114C20.936 8.44503 21.4569 8.60541 21.8039 8.74015C22.2633 8.91858 22.5909 9.13187 22.9352 9.47642C23.2798 9.82097 23.4931 10.1491 23.6719 10.6085C23.8066 10.9551 23.9672 11.476 24.0109 12.4359C24.0581 13.4736 24.0683 13.7854 24.0683 16.4126C24.0683 19.0398 24.0581 19.3515 24.0109 20.3892C23.967 21.3491 23.8066 21.87 23.6719 22.2166C23.4935 22.676 23.2798 23.0031 22.9352 23.3475C22.5907 23.692 22.2636 23.9053 21.8039 24.0837C21.4573 24.2191 20.936 24.3791 19.9762 24.4229C18.9384 24.4701 18.6267 24.4804 15.9983 24.4804C13.3696 24.4804 13.0581 24.4701 12.0204 24.4229C11.0605 24.3786 10.5396 24.2183 10.1924 24.0835C9.73299 23.9051 9.40484 23.6918 9.06029 23.3472C8.71574 23.0027 8.50245 22.6754 8.32361 22.2158C8.18887 21.8692 8.02828 21.3482 7.9846 20.3884C7.93743 19.3507 7.92799 19.0389 7.92799 16.4101C7.92799 13.7813 7.93743 13.4712 7.9846 12.4334C8.02849 11.4736 8.18887 10.9527 8.32361 10.6056C8.50204 10.1462 8.71574 9.8181 9.06029 9.47355C9.40484 9.129 9.73299 8.91571 10.1924 8.73687C10.5394 8.60151 11.0605 8.44154 12.0204 8.39745C12.9285 8.35643 13.2804 8.34412 15.1152 8.34207V8.34453ZM21.2531 9.9791C20.6009 9.9791 20.0718 10.5076 20.0718 11.16C20.0718 11.8122 20.6009 12.3413 21.2531 12.3413C21.9053 12.3413 22.4344 11.8122 22.4344 11.16C22.4344 10.5078 21.9053 9.97869 21.2531 9.97869V9.9791ZM15.9983 11.3594C13.2064 11.3594 10.9428 13.6229 10.9428 16.4148C10.9428 19.2067 13.2064 21.4692 15.9983 21.4692C18.7902 21.4692 21.0529 19.2067 21.0529 16.4148C21.0529 13.6229 18.7902 11.3594 15.9983 11.3594ZM15.9983 13.1334C17.8104 13.1334 19.2797 14.6024 19.2797 16.4148C19.2797 18.227 17.8104 19.6962 15.9983 19.6962C14.1859 19.6962 12.7168 18.227 12.7168 16.4148C12.7168 14.6024 14.1859 13.1334 15.9983 13.1334Z" fill="white"/>
<defs>
<radialGradient id="paint0_radial_5509_17575" cx="0" cy="0" r="1" gradientUnits="userSpaceOnUse" gradientTransform="translate(9.75012 31.7967) rotate(-90) scale(26.4214 24.5807)">
<stop stop-color="#FFDD55"/>
<stop offset="0.1" stop-color="#FFDD55"/>
<stop offset="0.5" stop-color="#FF543E"/>
<stop offset="1" stop-color="#C837AB"/>
</radialGradient>
<radialGradient id="paint1_radial_5509_17575" cx="0" cy="0" r="1" gradientUnits="userSpaceOnUse" gradientTransform="translate(-1.80006 5.00448) rotate(78.6776) scale(11.8106 48.6961)">
<stop stop-color="#3771C8"/>
<stop offset="0.128" stop-color="#3771C8"/>
<stop offset="1" stop-color="#6600FF" stop-opacity="0"/>
</radialGradient>
</defs>
</svg>
