<svg width="55" height="55" viewBox="0 0 55 55" fill="none" xmlns="http://www.w3.org/2000/svg">
<g clip-path="url(#clip0_9_600)">
<path d="M26.2004 45C34.5762 45 41.3855 38.1906 41.3855 29.7995C41.3855 26.9693 40.6119 24.3 39.2409 22.0366L37.0502 24.2272C37.9157 25.897 38.406 27.7889 38.406 29.7995C38.406 36.5361 32.937 42.0204 26.2004 42.0204C19.4638 42.0204 13.9796 36.5361 13.9796 29.7995C13.9796 23.063 19.4638 17.5787 26.2004 17.5787C28.2111 17.5787 30.1183 18.0689 31.7881 18.9344L33.9787 16.7438C31.7 15.3881 29.046 14.5991 26.2004 14.5991C17.8094 14.5991 11 21.4238 11 29.7995C11 38.1753 17.8094 45 26.2004 45Z" fill="#000000"/>
<path d="M26.2004 23.3195C26.5719 23.3195 26.9472 23.3502 27.3034 23.4229L29.7047 21.0255C28.617 20.5774 27.4413 20.34 26.2042 20.34C20.9728 20.34 16.7255 24.5872 16.7255 29.8034C16.7255 35.0195 20.9728 39.2821 26.2042 39.2821C31.4357 39.2821 35.6677 35.0349 35.6677 29.8034C35.6677 28.5663 35.4302 27.3906 34.9821 26.3029L32.5808 28.7004C32.6536 29.0566 32.6842 29.4319 32.6842 29.8034C32.6842 33.3804 29.7774 36.2987 26.2004 36.2987C22.6234 36.2987 19.7051 33.3766 19.7051 29.8034C19.7051 26.2302 22.6272 23.3195 26.2004 23.3195Z" fill="#000000"/>
<path d="M27.5638 26.3297C27.1387 26.1612 26.683 26.0616 26.1966 26.0616C24.1362 26.0616 22.4549 27.7391 22.4549 29.8033C22.4549 31.8676 24.1323 33.5412 26.1966 33.5412C28.2609 33.5412 29.9345 31.8638 29.9345 29.8033C29.9345 29.3208 29.8349 28.8612 29.6664 28.4399L39.7234 18.3829H42.814C43.1128 18.3829 43.3962 18.2642 43.603 18.0574L46.663 14.9974C46.9847 14.6757 47.0766 14.197 46.9043 13.7795C46.7319 13.3621 46.3221 13.0902 45.8702 13.0902H42.906V10.1182C42.906 9.66633 42.634 9.25654 42.2166 9.0842C41.7992 8.91186 41.3204 9.0076 40.9987 9.32547L37.9387 12.3855C37.7281 12.5961 37.6132 12.8795 37.6132 13.1744V16.265L27.5562 26.3221L27.5638 26.3297Z" fill="#000000"/>
</g>
<defs>
<clipPath id="clip0_9_600">
<rect width="36" height="36" fill="white" transform="translate(11 9)"/>
</clipPath>
</defs>
</svg>
