<svg width="55" height="55" viewBox="0 0 55 55" fill="none" xmlns="http://www.w3.org/2000/svg">
<g clip-path="url(#clip0_9_600)">
<path d="M29.8138 30.9359C25.4363 30.9359 21.8795 27.379 21.8795 23.0016C21.8795 18.6241 25.4363 15.0673 29.8138 15.0673C34.1912 15.0673 37.7481 18.6241 37.7481 23.0016C37.7481 27.379 34.1912 30.9359 29.8138 30.9359ZM29.8138 17.5567C26.8132 17.5567 24.3689 20.001 24.3689 23.0016C24.3689 26.0022 26.8132 28.4464 29.8138 28.4464C32.8144 28.4464 35.2586 26.0022 35.2586 23.0016C35.2586 20.001 32.8144 17.5567 29.8138 17.5567Z" fill="#000000"/>
<path d="M23.9343 45C23.2494 45 22.6861 44.4437 22.6861 43.7517V34.4927C22.6861 33.8008 23.2424 33.2445 23.9343 33.2445C24.6262 33.2445 25.1825 33.8008 25.1825 34.4927V43.7517C25.1825 44.4367 24.6193 45 23.9343 45Z" fill="#000000"/>
<path d="M27.0253 41.5439H20.8433C20.1584 41.5439 19.5951 40.9876 19.5951 40.2957C19.5951 39.6038 20.1514 39.0475 20.8433 39.0475H27.0253C27.7102 39.0475 28.2735 39.6038 28.2735 40.2957C28.2666 40.9876 27.7102 41.5439 27.0253 41.5439Z" fill="#000000"/>
<path d="M29.8138 27.1425C30.5544 27.1425 31.2393 26.9304 31.8443 26.5897C31.6566 23.5787 29.7929 21.0197 27.1679 19.8445C26.5142 20.3938 26.0344 21.1309 25.8153 21.9828C27.8911 22.7512 29.3792 24.7469 29.3792 27.0869C29.3792 27.0904 29.3792 27.0973 29.3792 27.1008C29.5252 27.1147 29.6643 27.146 29.8138 27.146V27.1425Z" fill="#000000"/>
<path d="M29.8138 32.2397C28.7499 32.2397 27.7311 32.0485 26.7784 31.7182C25.9475 32.2293 24.9774 32.5318 23.9343 32.5318C20.9337 32.5318 18.4895 30.0875 18.4895 27.0869C18.4895 25.3484 19.3135 23.8012 20.5861 22.8033C20.6104 21.6907 20.8329 20.6268 21.2189 19.6428C18.18 20.7485 16 23.6621 16 27.0834C16 31.4609 19.5569 35.0178 23.9343 35.0178C26.3473 35.0178 28.5065 33.933 29.9598 32.2327C29.9111 32.2327 29.8625 32.2397 29.8138 32.2397Z" fill="#000000"/>
<path d="M35.057 18.9996C34.7371 18.9996 34.4172 18.8779 34.1739 18.6345C33.6871 18.1478 33.6871 17.362 34.1739 16.8752L41.4024 9.65365C41.8891 9.16688 42.6749 9.16688 43.1617 9.65365C43.6485 10.1404 43.6485 10.9262 43.1617 11.413L35.9297 18.638C35.6933 18.8814 35.3734 19.0031 35.0535 19.0031L35.057 18.9996Z" fill="#000000"/>
<path d="M42.5671 16.8717C41.8822 16.8717 41.3189 16.3154 41.3189 15.6235V11.4964H37.1918C36.5069 11.4964 35.9436 10.9401 35.9436 10.2482C35.9436 9.55631 36.4999 9 37.1918 9H42.5671C43.2521 9 43.8153 9.55631 43.8153 10.2482V15.6235C43.8084 16.3154 43.2521 16.8717 42.5671 16.8717Z" fill="#000000"/>
</g>
<defs>
<clipPath id="clip0_9_600">
<rect width="27.8153" height="36" fill="white" transform="translate(16 9)"/>
</clipPath>
</defs>
</svg>
