<svg width="57" height="34" viewBox="0 0 57 34" fill="none" xmlns="http://www.w3.org/2000/svg">
<g clip-path="url(#clip0_1050_240)">
<rect width="57" height="34" rx="2.28893" transform="matrix(1 0 0 -1 0.107666 33.9124)" fill="white"/>
<path fill-rule="evenodd" clip-rule="evenodd" d="M35.2106 14.6868C35.0569 15.6962 34.2861 15.6962 33.5403 15.6962H33.1161L33.4137 13.8115C33.4315 13.6977 33.5298 13.6139 33.6451 13.6139H33.8398C34.3474 13.6139 34.8267 13.6139 35.074 13.9029C35.2219 14.0758 35.2665 14.3325 35.2106 14.6868M34.8858 12.0532H32.0737C31.8812 12.0532 31.7176 12.1931 31.6875 12.3831L30.5505 19.5939C30.528 19.736 30.6383 19.8647 30.7818 19.8647H32.2249C32.3594 19.8647 32.474 19.7669 32.495 19.6342L32.8177 17.5896C32.8474 17.3996 33.0113 17.2597 33.2034 17.2597H34.0932C35.9456 17.2597 37.0148 16.3634 37.294 14.5865C37.4198 13.8098 37.299 13.1993 36.9354 12.7718C36.5355 12.3019 35.8266 12.0532 34.8858 12.0532" fill="#0079C1"/>
<path fill-rule="evenodd" clip-rule="evenodd" d="M15.1529 14.6868C14.9992 15.6962 14.2284 15.6962 13.4826 15.6962H13.0584L13.356 13.8115C13.3738 13.6977 13.4721 13.6139 13.5874 13.6139H13.7821C14.2897 13.6139 14.769 13.6139 15.0162 13.9029C15.1642 14.0758 15.2088 14.3325 15.1529 14.6868M14.8284 12.0532H12.0163C11.8238 12.0532 11.6603 12.1931 11.6302 12.3831L10.4932 19.5939C10.4707 19.736 10.5805 19.8647 10.7245 19.8647H12.0674C12.2596 19.8647 12.4231 19.7248 12.4532 19.5352L12.7603 17.5896C12.79 17.3996 12.9539 17.2597 13.1461 17.2597H14.0358C15.8882 17.2597 16.9574 16.3634 17.2366 14.5865C17.3624 13.8098 17.2417 13.1993 16.878 12.7718C16.4781 12.3019 15.7693 12.0532 14.8284 12.0532" fill="#00457C"/>
<path fill-rule="evenodd" clip-rule="evenodd" d="M21.3568 17.2755C21.2267 18.0449 20.6161 18.5616 19.837 18.5616C19.4465 18.5616 19.1336 18.4358 18.9327 18.1979C18.7337 17.9622 18.6586 17.6261 18.7217 17.2523C18.8428 16.4895 19.4635 15.9565 20.2307 15.9565C20.6132 15.9565 20.9236 16.0834 21.1284 16.3234C21.3347 16.5653 21.4159 16.9032 21.3568 17.2755M23.2337 14.6543H21.8871C21.7718 14.6543 21.6736 14.738 21.6555 14.8523L21.5964 15.2286L21.5025 15.0923C21.2106 14.6692 20.5605 14.5274 19.9115 14.5274C18.4239 14.5274 17.1531 15.655 16.9058 17.2361C16.7771 18.0251 16.9598 18.7789 17.4072 19.305C17.818 19.7883 18.4043 19.9895 19.103 19.9895C20.3023 19.9895 20.9673 19.2194 20.9673 19.2194L20.9071 19.5936C20.8846 19.7357 20.9945 19.8644 21.1388 19.8644H22.3512C22.5438 19.8644 22.7073 19.7248 22.7374 19.5348L23.4654 14.9251C23.4879 14.783 23.3777 14.6543 23.2337 14.6543" fill="#00457C"/>
<path fill-rule="evenodd" clip-rule="evenodd" d="M41.4144 17.2755C41.2843 18.0449 40.6737 18.5616 39.8945 18.5616C39.504 18.5616 39.1911 18.4358 38.9903 18.1979C38.7909 17.9622 38.7162 17.6261 38.7793 17.2523C38.9004 16.4895 39.5211 15.9565 40.2883 15.9565C40.6708 15.9565 40.9811 16.0834 41.186 16.3234C41.3923 16.5653 41.4735 16.9032 41.4144 17.2755M43.2909 14.6543H41.9443C41.829 14.6543 41.7307 14.738 41.7126 14.8523L41.6535 15.2286L41.5592 15.0923C41.2677 14.6692 40.6176 14.5274 39.9686 14.5274C38.481 14.5274 37.2102 15.655 36.9629 17.2361C36.8342 18.0251 37.0169 18.7789 37.4644 19.305C37.8751 19.7883 38.4614 19.9895 39.1601 19.9895C40.3595 19.9895 41.0244 19.2194 41.0244 19.2194L40.9642 19.5936C40.9418 19.7357 41.0516 19.8644 41.1959 19.8644H42.4084C42.6009 19.8644 42.7644 19.7248 42.7945 19.5348L43.5225 14.9251C43.545 14.783 43.4348 14.6543 43.2909 14.6543" fill="#0079C1"/>
<path fill-rule="evenodd" clip-rule="evenodd" d="M30.4059 14.6544H29.0524C28.923 14.6544 28.8019 14.7185 28.7294 14.8259L26.8621 17.5756L26.071 14.9332C26.0213 14.7679 25.8691 14.6544 25.6965 14.6544H24.3662C24.2056 14.6544 24.0925 14.8124 24.1443 14.9644L25.6345 19.3391L24.2328 21.3169C24.1229 21.4721 24.2339 21.6868 24.4242 21.6868H25.7762C25.9042 21.6868 26.0242 21.624 26.0975 21.5189L30.5984 15.0224C30.7061 14.8668 30.5951 14.6544 30.4059 14.6544" fill="#00457C"/>
<path fill-rule="evenodd" clip-rule="evenodd" d="M44.8779 12.2511L43.7239 19.5939C43.7014 19.736 43.8113 19.8647 43.9552 19.8647H45.1161C45.3083 19.8647 45.4722 19.7248 45.5019 19.5348L46.64 12.324C46.6625 12.1819 46.5526 12.0532 46.4083 12.0532H45.1096C44.994 12.0532 44.8957 12.1369 44.8779 12.2511" fill="#0079C1"/>
</g>
<defs>
<clipPath id="clip0_1050_240">
<rect width="57" height="34" fill="white" transform="matrix(1 0 0 -1 0 34)"/>
</clipPath>
</defs>
</svg>
