<svg width="40" height="41" viewBox="0 0 40 41" fill="none" xmlns="http://www.w3.org/2000/svg">
<path fill-rule="evenodd" clip-rule="evenodd" d="M19.9998 29.6412L40 17.5177V20.7923L19.9998 32.917L0 20.7923V17.5177L19.9998 29.6412ZM19.9944 14.4829C24.4993 14.4829 28.4674 16.7119 30.7912 20.0954H30.7879L27.844 21.8814C23.4157 16.1603 15.3144 15.1691 9.70232 19.6819C9.53762 19.8139 9.37862 19.9506 9.22172 20.0887L9.20342 20.0867C11.5272 16.7084 15.4929 14.4826 19.9944 14.4826V14.4829ZM19.9944 20.0485C22.447 20.0485 24.6145 21.2348 25.9204 23.0474H25.9192L23.0791 24.7697C21.7549 23.0008 19.8258 21.8851 17.6775 21.8851C16.3707 21.8851 15.1467 22.2989 14.0883 23.0187C15.3975 21.2223 17.5545 20.0488 19.9948 20.0488L19.9944 20.0485ZM6.47642 15.1596C5.75701 15.7118 4.95481 16.5037 4.33591 17.1358C7.70462 12.1589 13.5282 8.91699 19.9932 8.91699C26.5519 8.91699 32.3203 12.1907 35.6602 17.1477V17.1465L32.6116 18.9884L32.5699 18.9273C26.3641 10.5298 14.7105 8.83592 6.47642 15.1599V15.1596Z" fill="#F7991C"/>
</svg>
