<svg width="40" height="41" viewBox="0 0 40 41" fill="none" xmlns="http://www.w3.org/2000/svg">
<g clip-path="url(#clip0_3817_3664)">
<path d="M39.1641 11.2267C38.7041 9.49441 37.3489 8.13031 35.6277 7.66736C32.5084 6.826 20 6.826 20 6.826C20 6.826 7.49166 6.826 4.37225 7.66736C2.65127 8.13031 1.29581 9.49441 0.835848 11.2267C0 14.3663 0 20.9169 0 20.9169C0 20.9169 0 27.4674 0.835848 30.6073C1.29581 32.3394 2.65127 33.7035 4.37225 34.1666C7.49166 35.0078 20 35.0078 20 35.0078C20 35.0078 32.5084 35.0078 35.6277 34.1666C37.3489 33.7035 38.7041 32.3394 39.1641 30.6073C40 27.4674 40 20.9169 40 20.9169C40 20.9169 40 14.3663 39.1641 11.2267Z" fill="#FF0000"/>
<path d="M15.9082 26.8643L26.3627 20.9171L15.9082 14.9694V26.8643Z" fill="white"/>
</g>
<defs>
<clipPath id="clip0_3817_3664">
<rect width="40" height="28.1818" fill="white" transform="translate(0 6.82617)"/>
</clipPath>
</defs>
</svg>
