<svg width="55" height="55" viewBox="0 0 55 55" fill="none" xmlns="http://www.w3.org/2000/svg">
<g clip-path="url(#clip0_9_600)">
<path d="M37.1468 33.6986L38.1 31.8577C37.0364 29.8409 35.2936 28.2414 33.1786 27.3455H33.1745C31.1945 29.1946 28.5355 30.3277 25.6186 30.3277C22.7018 30.3277 20.0386 29.1946 18.0627 27.3373C14.4995 28.8468 12 32.3732 12 36.4805V40.4118C12 41.2914 12.7159 42.0114 13.5995 42.0114H27.8359V37.3764C27.8359 35.9609 28.9895 34.8114 30.4009 34.8114H33.9314C34.4305 34.8114 34.8968 34.9546 35.2895 35.2123L35.5636 35.1059C36.2468 34.8482 36.8073 34.3532 37.1427 33.7068L37.1468 33.6986Z" fill="#000000"/>
<path d="M46.2286 36.2719H42.7882C42.4977 36.2719 42.285 36.0019 42.3505 35.7155L43.1318 32.4346C43.3855 31.3587 42.5714 30.3319 41.4668 30.3359C41.16 30.3359 40.8736 30.5119 40.7264 30.786L38.775 34.5455C38.2595 35.5273 37.4291 36.3046 36.4146 36.7382C36.4677 36.9387 36.4964 37.1514 36.4964 37.3723V45.7505C36.4964 45.8528 36.4923 45.9591 36.48 46.0532L38.6155 46.3764C40.0105 46.5809 41.4259 46.6873 42.8332 46.6873H44.895C45.7377 46.6873 46.47 46.0859 46.6296 45.2555L47.9673 38.3787C48.18 37.2864 47.3414 36.2719 46.2286 36.2719Z" fill="#000000"/>
<path d="M33.9314 36.644H30.3968C29.9918 36.644 29.6646 36.9713 29.6646 37.3722V45.7504C29.6646 46.1554 29.9918 46.4827 30.3968 46.4827H33.9314C34.3364 46.4827 34.6636 46.1554 34.6636 45.7504V37.3722C34.6636 36.9672 34.3364 36.644 33.9314 36.644ZM32.1682 45.104C31.6486 45.104 31.2273 44.6827 31.2273 44.1631C31.2273 43.6436 31.6486 43.2222 32.1682 43.2222C32.6877 43.2222 33.1091 43.6436 33.1091 44.1631C33.1091 44.6827 32.6877 45.104 32.1682 45.104Z" fill="#000000"/>
<path d="M25.6186 28.495C30.7241 28.495 34.8682 24.355 34.8682 19.2455C34.8682 14.1359 30.7282 10 25.6186 10C20.5091 10 16.3732 14.14 16.3732 19.2495C16.3732 24.3591 20.5132 28.4991 25.6227 28.4991L25.6186 28.495ZM28.8464 15.3264C29.7095 15.3264 30.4091 16.0259 30.4091 16.8891C30.4091 17.7523 29.7095 18.4518 28.8464 18.4518C27.9832 18.4518 27.2836 17.7523 27.2836 16.8891C27.2836 16.0259 27.9832 15.3264 28.8464 15.3264ZM28.1223 21.2745C28.3104 20.89 28.7727 20.7305 29.1573 20.9186C29.5418 21.1068 29.7014 21.5691 29.5132 21.9536C28.7932 23.4264 27.2632 24.3795 25.6186 24.3795C23.9741 24.3795 22.4441 23.4264 21.7241 21.9536C21.5359 21.5691 21.6954 21.1068 22.08 20.9186C22.1904 20.8655 22.305 20.8409 22.4195 20.8409C22.7059 20.8409 22.98 21.0005 23.115 21.2745C23.5854 22.2359 24.5468 22.8332 25.6186 22.8332C26.6904 22.8332 27.6518 22.2359 28.1223 21.2745ZM22.395 15.3264C23.2582 15.3264 23.9577 16.0259 23.9577 16.8891C23.9577 17.7523 23.2582 18.4518 22.395 18.4518C21.5318 18.4518 20.8323 17.7523 20.8323 16.8891C20.8323 16.0259 21.5318 15.3264 22.395 15.3264Z" fill="#000000"/>
</g>
<defs>
<clipPath id="clip0_9_600">
<rect width="36" height="36.6873" fill="white" transform="translate(12 10)"/>
</clipPath>
</defs>
</svg>
